<svg width="586" height="91" viewBox="0 0 586 91" fill="none" xmlns="http://www.w3.org/2000/svg">
<path d="M21.9297 12.1055V52H14.0547V21.1836L4.59375 24.1914V17.9844L21.082 12.1055H21.9297ZM61.6875 28.5938V35.4844C61.6875 38.474 61.3685 41.0534 60.7305 43.2227C60.0924 45.3737 59.1719 47.1419 57.9688 48.5273C56.7839 49.8945 55.3711 50.9062 53.7305 51.5625C52.0898 52.2188 50.2669 52.5469 48.2617 52.5469C46.6576 52.5469 45.1628 52.3464 43.7773 51.9453C42.3919 51.526 41.1432 50.8789 40.0312 50.0039C38.9375 49.1289 37.9896 48.026 37.1875 46.6953C36.4036 45.3464 35.8021 43.7422 35.3828 41.8828C34.9635 40.0234 34.7539 37.8906 34.7539 35.4844V28.5938C34.7539 25.6042 35.0729 23.043 35.7109 20.9102C36.3672 18.7591 37.2878 17 38.4727 15.6328C39.6758 14.2656 41.0977 13.263 42.7383 12.625C44.3789 11.9688 46.2018 11.6406 48.207 11.6406C49.8112 11.6406 51.2969 11.8503 52.6641 12.2695C54.0495 12.6706 55.2982 13.2995 56.4102 14.1562C57.5221 15.013 58.4701 16.1159 59.2539 17.4648C60.0378 18.7956 60.6393 20.3906 61.0586 22.25C61.4779 24.0911 61.6875 26.2057 61.6875 28.5938ZM53.7852 36.5234V27.5273C53.7852 26.0872 53.7031 24.8294 53.5391 23.7539C53.3932 22.6784 53.1654 21.7669 52.8555 21.0195C52.5456 20.2539 52.1628 19.6341 51.707 19.1602C51.2513 18.6862 50.7318 18.3398 50.1484 18.1211C49.5651 17.9023 48.918 17.793 48.207 17.793C47.3138 17.793 46.5208 17.9661 45.8281 18.3125C45.1536 18.6589 44.5794 19.2148 44.1055 19.9805C43.6315 20.7279 43.2669 21.7305 43.0117 22.9883C42.7747 24.2279 42.6562 25.7409 42.6562 27.5273V36.5234C42.6562 37.9635 42.7292 39.2305 42.875 40.3242C43.0391 41.418 43.276 42.3568 43.5859 43.1406C43.9141 43.9062 44.2969 44.5352 44.7344 45.0273C45.1901 45.5013 45.7096 45.8477 46.293 46.0664C46.8945 46.2852 47.5508 46.3945 48.2617 46.3945C49.1367 46.3945 49.9115 46.2214 50.5859 45.875C51.2786 45.5104 51.862 44.9453 52.3359 44.1797C52.8281 43.3958 53.1927 42.375 53.4297 41.1172C53.6667 39.8594 53.7852 38.3281 53.7852 36.5234ZM71.6133 12.1875H78.5586L88.7852 41.418L99.0117 12.1875H105.957L91.5742 52H85.9961L71.6133 12.1875ZM67.8672 12.1875H74.7852L76.043 40.6797V52H67.8672V12.1875ZM102.785 12.1875H109.73V52H101.527V40.6797L102.785 12.1875Z" fill="#121212"/>
<path d="M141.422 30.6445V35.4023H114.133V30.6445H141.422ZM130.32 19.0234V48.0078H125.262V19.0234H130.32Z" fill="#FF5634"/>
<path d="M9.84375 79.7051V81.085H2.91797V79.7051H9.84375ZM3.18164 74.2031V87H1.48535V74.2031H3.18164ZM11.3203 74.2031V87H9.63281V74.2031H11.3203ZM19.6963 85.374V80.4785C19.6963 80.1035 19.6201 79.7783 19.4678 79.5029C19.3213 79.2217 19.0986 79.0049 18.7998 78.8525C18.501 78.7002 18.1318 78.624 17.6924 78.624C17.2822 78.624 16.9219 78.6943 16.6113 78.835C16.3066 78.9756 16.0664 79.1602 15.8906 79.3887C15.7207 79.6172 15.6357 79.8633 15.6357 80.127H14.0098C14.0098 79.7871 14.0977 79.4502 14.2734 79.1162C14.4492 78.7822 14.7012 78.4805 15.0293 78.2109C15.3633 77.9355 15.7617 77.7188 16.2246 77.5605C16.6934 77.3965 17.2148 77.3145 17.7891 77.3145C18.4805 77.3145 19.0898 77.4316 19.6172 77.666C20.1504 77.9004 20.5664 78.2549 20.8652 78.7295C21.1699 79.1982 21.3223 79.7871 21.3223 80.4961V84.9258C21.3223 85.2422 21.3486 85.5791 21.4014 85.9365C21.46 86.2939 21.5449 86.6016 21.6562 86.8594V87H19.96C19.8779 86.8125 19.8135 86.5635 19.7666 86.2529C19.7197 85.9365 19.6963 85.6436 19.6963 85.374ZM19.9775 81.2344L19.9951 82.377H18.3516C17.8887 82.377 17.4756 82.415 17.1123 82.4912C16.749 82.5615 16.4443 82.6699 16.1982 82.8164C15.9521 82.9629 15.7646 83.1475 15.6357 83.3701C15.5068 83.5869 15.4424 83.8418 15.4424 84.1348C15.4424 84.4336 15.5098 84.7061 15.6445 84.9521C15.7793 85.1982 15.9814 85.3945 16.251 85.541C16.5264 85.6816 16.8633 85.752 17.2617 85.752C17.7598 85.752 18.1992 85.6465 18.5801 85.4355C18.9609 85.2246 19.2627 84.9668 19.4854 84.6621C19.7139 84.3574 19.8369 84.0615 19.8545 83.7744L20.5488 84.5566C20.5078 84.8027 20.3965 85.0752 20.2148 85.374C20.0332 85.6729 19.79 85.96 19.4854 86.2354C19.1865 86.5049 18.8291 86.7305 18.4131 86.9121C18.0029 87.0879 17.54 87.1758 17.0244 87.1758C16.3799 87.1758 15.8145 87.0498 15.3281 86.7979C14.8477 86.5459 14.4727 86.209 14.2031 85.7871C13.9395 85.3594 13.8076 84.8818 13.8076 84.3545C13.8076 83.8447 13.9072 83.3965 14.1064 83.0098C14.3057 82.6172 14.5928 82.292 14.9678 82.0342C15.3428 81.7705 15.7939 81.5713 16.3213 81.4365C16.8486 81.3018 17.4375 81.2344 18.0879 81.2344H19.9775ZM25.5059 79.3184V90.6562H23.8711V77.4902H25.3652L25.5059 79.3184ZM31.9131 82.166V82.3506C31.9131 83.042 31.8311 83.6836 31.667 84.2754C31.5029 84.8613 31.2627 85.3711 30.9463 85.8047C30.6357 86.2383 30.252 86.5752 29.7949 86.8154C29.3379 87.0557 28.8135 87.1758 28.2217 87.1758C27.6182 87.1758 27.085 87.0762 26.6221 86.877C26.1592 86.6777 25.7666 86.3877 25.4443 86.0068C25.1221 85.626 24.8643 85.1689 24.6709 84.6357C24.4834 84.1025 24.3545 83.502 24.2842 82.834V81.8496C24.3545 81.1465 24.4863 80.5166 24.6797 79.96C24.873 79.4033 25.1279 78.9287 25.4443 78.5361C25.7666 78.1377 26.1562 77.8359 26.6133 77.6309C27.0703 77.4199 27.5977 77.3145 28.1953 77.3145C28.793 77.3145 29.3232 77.4316 29.7861 77.666C30.249 77.8945 30.6387 78.2227 30.9551 78.6504C31.2715 79.0781 31.5088 79.5908 31.667 80.1885C31.8311 80.7803 31.9131 81.4395 31.9131 82.166ZM30.2783 82.3506V82.166C30.2783 81.6914 30.2285 81.2461 30.1289 80.8301C30.0293 80.4082 29.874 80.0391 29.6631 79.7227C29.458 79.4004 29.1943 79.1484 28.8721 78.9668C28.5498 78.7793 28.166 78.6855 27.7207 78.6855C27.3105 78.6855 26.9531 78.7559 26.6484 78.8965C26.3496 79.0371 26.0947 79.2275 25.8838 79.4678C25.6729 79.7021 25.5 79.9717 25.3652 80.2764C25.2363 80.5752 25.1396 80.8857 25.0752 81.208V83.4844C25.1924 83.8945 25.3564 84.2812 25.5674 84.6445C25.7783 85.002 26.0596 85.292 26.4111 85.5146C26.7627 85.7314 27.2051 85.8398 27.7383 85.8398C28.1777 85.8398 28.5557 85.749 28.8721 85.5674C29.1943 85.3799 29.458 85.125 29.6631 84.8027C29.874 84.4805 30.0293 84.1113 30.1289 83.6953C30.2285 83.2734 30.2783 82.8252 30.2783 82.3506ZM35.6133 79.3184V90.6562H33.9785V77.4902H35.4727L35.6133 79.3184ZM42.0205 82.166V82.3506C42.0205 83.042 41.9385 83.6836 41.7744 84.2754C41.6104 84.8613 41.3701 85.3711 41.0537 85.8047C40.7432 86.2383 40.3594 86.5752 39.9023 86.8154C39.4453 87.0557 38.9209 87.1758 38.3291 87.1758C37.7256 87.1758 37.1924 87.0762 36.7295 86.877C36.2666 86.6777 35.874 86.3877 35.5518 86.0068C35.2295 85.626 34.9717 85.1689 34.7783 84.6357C34.5908 84.1025 34.4619 83.502 34.3916 82.834V81.8496C34.4619 81.1465 34.5938 80.5166 34.7871 79.96C34.9805 79.4033 35.2354 78.9287 35.5518 78.5361C35.874 78.1377 36.2637 77.8359 36.7207 77.6309C37.1777 77.4199 37.7051 77.3145 38.3027 77.3145C38.9004 77.3145 39.4307 77.4316 39.8936 77.666C40.3564 77.8945 40.7461 78.2227 41.0625 78.6504C41.3789 79.0781 41.6162 79.5908 41.7744 80.1885C41.9385 80.7803 42.0205 81.4395 42.0205 82.166ZM40.3857 82.3506V82.166C40.3857 81.6914 40.3359 81.2461 40.2363 80.8301C40.1367 80.4082 39.9814 80.0391 39.7705 79.7227C39.5654 79.4004 39.3018 79.1484 38.9795 78.9668C38.6572 78.7793 38.2734 78.6855 37.8281 78.6855C37.418 78.6855 37.0605 78.7559 36.7559 78.8965C36.457 79.0371 36.2021 79.2275 35.9912 79.4678C35.7803 79.7021 35.6074 79.9717 35.4727 80.2764C35.3438 80.5752 35.2471 80.8857 35.1826 81.208V83.4844C35.2998 83.8945 35.4639 84.2812 35.6748 84.6445C35.8857 85.002 36.167 85.292 36.5186 85.5146C36.8701 85.7314 37.3125 85.8398 37.8457 85.8398C38.2852 85.8398 38.6631 85.749 38.9795 85.5674C39.3018 85.3799 39.5654 85.125 39.7705 84.8027C39.9814 84.4805 40.1367 84.1113 40.2363 83.6953C40.3359 83.2734 40.3857 82.8252 40.3857 82.3506ZM46.6611 86.0156L49.3066 77.4902H51.0469L47.2324 88.4678C47.1445 88.7021 47.0273 88.9541 46.8809 89.2236C46.7402 89.499 46.5586 89.7598 46.3359 90.0059C46.1133 90.252 45.8438 90.4512 45.5273 90.6035C45.2168 90.7617 44.8447 90.8408 44.4111 90.8408C44.2822 90.8408 44.1182 90.8232 43.9189 90.7881C43.7197 90.7529 43.5791 90.7236 43.4971 90.7002L43.4883 89.3818C43.5352 89.3877 43.6084 89.3936 43.708 89.3994C43.8135 89.4111 43.8867 89.417 43.9277 89.417C44.2969 89.417 44.6104 89.3672 44.8682 89.2676C45.126 89.1738 45.3428 89.0127 45.5186 88.7842C45.7002 88.5615 45.8555 88.2539 45.9844 87.8613L46.6611 86.0156ZM44.7188 77.4902L47.1885 84.873L47.6104 86.5869L46.4414 87.1846L42.9434 77.4902H44.7188ZM60.7852 85.8398C61.1719 85.8398 61.5293 85.7607 61.8574 85.6025C62.1855 85.4443 62.4551 85.2275 62.666 84.9521C62.877 84.6709 62.9971 84.3516 63.0264 83.9941H64.5732C64.5439 84.5566 64.3535 85.0811 64.002 85.5674C63.6562 86.0479 63.2021 86.4375 62.6396 86.7363C62.0771 87.0293 61.459 87.1758 60.7852 87.1758C60.0703 87.1758 59.4463 87.0498 58.9131 86.7979C58.3857 86.5459 57.9463 86.2002 57.5947 85.7607C57.249 85.3213 56.9883 84.8174 56.8125 84.249C56.6426 83.6748 56.5576 83.0684 56.5576 82.4297V82.0605C56.5576 81.4219 56.6426 80.8184 56.8125 80.25C56.9883 79.6758 57.249 79.1689 57.5947 78.7295C57.9463 78.29 58.3857 77.9443 58.9131 77.6924C59.4463 77.4404 60.0703 77.3145 60.7852 77.3145C61.5293 77.3145 62.1797 77.4668 62.7363 77.7715C63.293 78.0703 63.7295 78.4805 64.0459 79.002C64.3682 79.5176 64.5439 80.1035 64.5732 80.7598H63.0264C62.9971 80.3672 62.8857 80.0127 62.6924 79.6963C62.5049 79.3799 62.2471 79.1279 61.9189 78.9404C61.5967 78.7471 61.2188 78.6504 60.7852 78.6504C60.2871 78.6504 59.8682 78.75 59.5283 78.9492C59.1943 79.1426 58.9277 79.4062 58.7285 79.7402C58.5352 80.0684 58.3945 80.4346 58.3066 80.8389C58.2246 81.2373 58.1836 81.6445 58.1836 82.0605V82.4297C58.1836 82.8457 58.2246 83.2559 58.3066 83.6602C58.3887 84.0645 58.5264 84.4307 58.7197 84.7588C58.9189 85.0869 59.1855 85.3506 59.5195 85.5498C59.8594 85.7432 60.2812 85.8398 60.7852 85.8398ZM72.2197 84.8027V77.4902H73.8545V87H72.2988L72.2197 84.8027ZM72.5273 82.7988L73.2041 82.7812C73.2041 83.4141 73.1367 84 73.002 84.5391C72.873 85.0723 72.6621 85.5352 72.3691 85.9277C72.0762 86.3203 71.6924 86.6279 71.2178 86.8506C70.7432 87.0674 70.166 87.1758 69.4863 87.1758C69.0234 87.1758 68.5986 87.1084 68.2119 86.9736C67.8311 86.8389 67.5029 86.6309 67.2275 86.3496C66.9521 86.0684 66.7383 85.7021 66.5859 85.251C66.4395 84.7998 66.3662 84.2578 66.3662 83.625V77.4902H67.9922V83.6426C67.9922 84.0703 68.0391 84.4248 68.1328 84.7061C68.2324 84.9814 68.3643 85.2012 68.5283 85.3652C68.6982 85.5234 68.8857 85.6348 69.0908 85.6992C69.3018 85.7637 69.5186 85.7959 69.7412 85.7959C70.4326 85.7959 70.9805 85.6641 71.3848 85.4004C71.7891 85.1309 72.0791 84.7705 72.2549 84.3193C72.4365 83.8623 72.5273 83.3555 72.5273 82.7988ZM81.8701 84.4775C81.8701 84.2432 81.8174 84.0264 81.7119 83.8271C81.6123 83.6221 81.4043 83.4375 81.0879 83.2734C80.7773 83.1035 80.3086 82.957 79.6816 82.834C79.1543 82.7227 78.6768 82.5908 78.249 82.4385C77.8271 82.2861 77.4668 82.1016 77.168 81.8848C76.875 81.668 76.6494 81.4131 76.4912 81.1201C76.333 80.8271 76.2539 80.4844 76.2539 80.0918C76.2539 79.7168 76.3359 79.3623 76.5 79.0283C76.6699 78.6943 76.9072 78.3984 77.2119 78.1406C77.5225 77.8828 77.8945 77.6807 78.3281 77.5342C78.7617 77.3877 79.2451 77.3145 79.7783 77.3145C80.54 77.3145 81.1904 77.4492 81.7295 77.7188C82.2686 77.9883 82.6816 78.3486 82.9688 78.7998C83.2559 79.2451 83.3994 79.7402 83.3994 80.2852H81.7734C81.7734 80.0215 81.6943 79.7666 81.5361 79.5205C81.3838 79.2686 81.1582 79.0605 80.8594 78.8965C80.5664 78.7324 80.2061 78.6504 79.7783 78.6504C79.3271 78.6504 78.9609 78.7207 78.6797 78.8613C78.4043 78.9961 78.2021 79.1689 78.0732 79.3799C77.9502 79.5908 77.8887 79.8135 77.8887 80.0479C77.8887 80.2236 77.918 80.3818 77.9766 80.5225C78.041 80.6572 78.1523 80.7832 78.3105 80.9004C78.4688 81.0117 78.6914 81.1172 78.9785 81.2168C79.2656 81.3164 79.6318 81.416 80.0771 81.5156C80.8564 81.6914 81.498 81.9023 82.002 82.1484C82.5059 82.3945 82.8809 82.6963 83.127 83.0537C83.373 83.4111 83.4961 83.8447 83.4961 84.3545C83.4961 84.7705 83.4082 85.1514 83.2324 85.4971C83.0625 85.8428 82.8135 86.1416 82.4854 86.3936C82.1631 86.6396 81.7764 86.833 81.3252 86.9736C80.8799 87.1084 80.3789 87.1758 79.8223 87.1758C78.9844 87.1758 78.2754 87.0264 77.6953 86.7275C77.1152 86.4287 76.6758 86.042 76.377 85.5674C76.0781 85.0928 75.9287 84.5918 75.9287 84.0645H77.5635C77.5869 84.5098 77.7158 84.8643 77.9502 85.1279C78.1846 85.3857 78.4717 85.5703 78.8115 85.6816C79.1514 85.7871 79.4883 85.8398 79.8223 85.8398C80.2676 85.8398 80.6396 85.7812 80.9385 85.6641C81.2432 85.5469 81.4746 85.3857 81.6328 85.1807C81.791 84.9756 81.8701 84.7412 81.8701 84.4775ZM89.6133 77.4902V78.7383H84.4717V77.4902H89.6133ZM86.2119 75.1787H87.8379V84.6445C87.8379 84.9668 87.8877 85.21 87.9873 85.374C88.0869 85.5381 88.2158 85.6465 88.374 85.6992C88.5322 85.752 88.7021 85.7783 88.8838 85.7783C89.0186 85.7783 89.1592 85.7666 89.3057 85.7432C89.458 85.7139 89.5723 85.6904 89.6484 85.6729L89.6572 87C89.5283 87.041 89.3584 87.0791 89.1475 87.1143C88.9424 87.1553 88.6934 87.1758 88.4004 87.1758C88.002 87.1758 87.6357 87.0967 87.3018 86.9385C86.9678 86.7803 86.7012 86.5166 86.502 86.1475C86.3086 85.7725 86.2119 85.2686 86.2119 84.6357V75.1787ZM90.9141 82.3506V82.1484C90.9141 81.4629 91.0137 80.8271 91.2129 80.2412C91.4121 79.6494 91.6992 79.1367 92.0742 78.7031C92.4492 78.2637 92.9033 77.9238 93.4365 77.6836C93.9697 77.4375 94.5674 77.3145 95.2295 77.3145C95.8975 77.3145 96.498 77.4375 97.0312 77.6836C97.5703 77.9238 98.0273 78.2637 98.4023 78.7031C98.7832 79.1367 99.0732 79.6494 99.2725 80.2412C99.4717 80.8271 99.5713 81.4629 99.5713 82.1484V82.3506C99.5713 83.0361 99.4717 83.6719 99.2725 84.2578C99.0732 84.8438 98.7832 85.3564 98.4023 85.7959C98.0273 86.2295 97.5732 86.5693 97.04 86.8154C96.5127 87.0557 95.915 87.1758 95.2471 87.1758C94.5791 87.1758 93.9785 87.0557 93.4453 86.8154C92.9121 86.5693 92.4551 86.2295 92.0742 85.7959C91.6992 85.3564 91.4121 84.8438 91.2129 84.2578C91.0137 83.6719 90.9141 83.0361 90.9141 82.3506ZM92.54 82.1484V82.3506C92.54 82.8252 92.5957 83.2734 92.707 83.6953C92.8184 84.1113 92.9854 84.4805 93.208 84.8027C93.4365 85.125 93.7207 85.3799 94.0605 85.5674C94.4004 85.749 94.7959 85.8398 95.2471 85.8398C95.6924 85.8398 96.082 85.749 96.416 85.5674C96.7559 85.3799 97.0371 85.125 97.2598 84.8027C97.4824 84.4805 97.6494 84.1113 97.7607 83.6953C97.8779 83.2734 97.9365 82.8252 97.9365 82.3506V82.1484C97.9365 81.6797 97.8779 81.2373 97.7607 80.8213C97.6494 80.3994 97.4795 80.0273 97.251 79.7051C97.0283 79.377 96.7471 79.1191 96.4072 78.9316C96.0732 78.7441 95.6807 78.6504 95.2295 78.6504C94.7842 78.6504 94.3916 78.7441 94.0518 78.9316C93.7178 79.1191 93.4365 79.377 93.208 79.7051C92.9854 80.0273 92.8184 80.3994 92.707 80.8213C92.5957 81.2373 92.54 81.6797 92.54 82.1484ZM103.228 79.3799V87H101.593V77.4902H103.14L103.228 79.3799ZM102.894 81.8848L102.138 81.8584C102.144 81.208 102.229 80.6074 102.393 80.0566C102.557 79.5 102.8 79.0166 103.122 78.6064C103.444 78.1963 103.846 77.8799 104.326 77.6572C104.807 77.4287 105.363 77.3145 105.996 77.3145C106.441 77.3145 106.852 77.3789 107.227 77.5078C107.602 77.6309 107.927 77.8271 108.202 78.0967C108.478 78.3662 108.691 78.7119 108.844 79.1338C108.996 79.5557 109.072 80.0654 109.072 80.6631V87H107.446V80.7422C107.446 80.2441 107.361 79.8457 107.191 79.5469C107.027 79.248 106.793 79.0312 106.488 78.8965C106.184 78.7559 105.826 78.6855 105.416 78.6855C104.936 78.6855 104.534 78.7705 104.212 78.9404C103.89 79.1104 103.632 79.3447 103.438 79.6436C103.245 79.9424 103.104 80.2852 103.017 80.6719C102.935 81.0527 102.894 81.457 102.894 81.8848ZM109.055 80.9883L107.965 81.3223C107.971 80.8008 108.056 80.2998 108.22 79.8193C108.39 79.3389 108.633 78.9111 108.949 78.5361C109.271 78.1611 109.667 77.8652 110.136 77.6484C110.604 77.4258 111.141 77.3145 111.744 77.3145C112.254 77.3145 112.705 77.3818 113.098 77.5166C113.496 77.6514 113.83 77.8594 114.1 78.1406C114.375 78.416 114.583 78.7705 114.724 79.2041C114.864 79.6377 114.935 80.1533 114.935 80.751V87H113.3V80.7334C113.3 80.2002 113.215 79.7871 113.045 79.4941C112.881 79.1953 112.646 78.9873 112.342 78.8701C112.043 78.7471 111.686 78.6855 111.27 78.6855C110.912 78.6855 110.596 78.7471 110.32 78.8701C110.045 78.9932 109.813 79.1631 109.626 79.3799C109.438 79.5908 109.295 79.834 109.195 80.1094C109.102 80.3848 109.055 80.6777 109.055 80.9883ZM121.342 87.1758C120.68 87.1758 120.079 87.0645 119.54 86.8418C119.007 86.6133 118.547 86.2939 118.16 85.8838C117.779 85.4736 117.486 84.9873 117.281 84.4248C117.076 83.8623 116.974 83.2471 116.974 82.5791V82.21C116.974 81.4365 117.088 80.748 117.316 80.1445C117.545 79.5352 117.855 79.0195 118.248 78.5977C118.641 78.1758 119.086 77.8564 119.584 77.6396C120.082 77.4229 120.598 77.3145 121.131 77.3145C121.811 77.3145 122.396 77.4316 122.889 77.666C123.387 77.9004 123.794 78.2285 124.11 78.6504C124.427 79.0664 124.661 79.5586 124.813 80.127C124.966 80.6895 125.042 81.3047 125.042 81.9727V82.7021H117.94V81.375H123.416V81.252C123.393 80.8301 123.305 80.4199 123.152 80.0215C123.006 79.623 122.771 79.2949 122.449 79.0371C122.127 78.7793 121.688 78.6504 121.131 78.6504C120.762 78.6504 120.422 78.7295 120.111 78.8877C119.801 79.04 119.534 79.2686 119.312 79.5732C119.089 79.8779 118.916 80.25 118.793 80.6895C118.67 81.1289 118.608 81.6357 118.608 82.21V82.5791C118.608 83.0303 118.67 83.4551 118.793 83.8535C118.922 84.2461 119.106 84.5918 119.347 84.8906C119.593 85.1895 119.889 85.4238 120.234 85.5938C120.586 85.7637 120.984 85.8486 121.43 85.8486C122.004 85.8486 122.49 85.7314 122.889 85.4971C123.287 85.2627 123.636 84.9492 123.935 84.5566L124.919 85.3389C124.714 85.6494 124.453 85.9453 124.137 86.2266C123.82 86.5078 123.431 86.7363 122.968 86.9121C122.511 87.0879 121.969 87.1758 121.342 87.1758ZM128.566 78.9844V87H126.94V77.4902H128.522L128.566 78.9844ZM131.537 77.4375L131.528 78.9492C131.394 78.9199 131.265 78.9023 131.142 78.8965C131.024 78.8848 130.89 78.8789 130.737 78.8789C130.362 78.8789 130.031 78.9375 129.744 79.0547C129.457 79.1719 129.214 79.3359 129.015 79.5469C128.815 79.7578 128.657 80.0098 128.54 80.3027C128.429 80.5898 128.355 80.9062 128.32 81.252L127.863 81.5156C127.863 80.9414 127.919 80.4023 128.03 79.8984C128.147 79.3945 128.326 78.9492 128.566 78.5625C128.807 78.1699 129.111 77.8652 129.48 77.6484C129.855 77.4258 130.301 77.3145 130.816 77.3145C130.934 77.3145 131.068 77.3291 131.221 77.3584C131.373 77.3818 131.479 77.4082 131.537 77.4375ZM138.577 84.4775C138.577 84.2432 138.524 84.0264 138.419 83.8271C138.319 83.6221 138.111 83.4375 137.795 83.2734C137.484 83.1035 137.016 82.957 136.389 82.834C135.861 82.7227 135.384 82.5908 134.956 82.4385C134.534 82.2861 134.174 82.1016 133.875 81.8848C133.582 81.668 133.356 81.4131 133.198 81.1201C133.04 80.8271 132.961 80.4844 132.961 80.0918C132.961 79.7168 133.043 79.3623 133.207 79.0283C133.377 78.6943 133.614 78.3984 133.919 78.1406C134.229 77.8828 134.602 77.6807 135.035 77.5342C135.469 77.3877 135.952 77.3145 136.485 77.3145C137.247 77.3145 137.897 77.4492 138.437 77.7188C138.976 77.9883 139.389 78.3486 139.676 78.7998C139.963 79.2451 140.106 79.7402 140.106 80.2852H138.48C138.48 80.0215 138.401 79.7666 138.243 79.5205C138.091 79.2686 137.865 79.0605 137.566 78.8965C137.273 78.7324 136.913 78.6504 136.485 78.6504C136.034 78.6504 135.668 78.7207 135.387 78.8613C135.111 78.9961 134.909 79.1689 134.78 79.3799C134.657 79.5908 134.596 79.8135 134.596 80.0479C134.596 80.2236 134.625 80.3818 134.684 80.5225C134.748 80.6572 134.859 80.7832 135.018 80.9004C135.176 81.0117 135.398 81.1172 135.686 81.2168C135.973 81.3164 136.339 81.416 136.784 81.5156C137.563 81.6914 138.205 81.9023 138.709 82.1484C139.213 82.3945 139.588 82.6963 139.834 83.0537C140.08 83.4111 140.203 83.8447 140.203 84.3545C140.203 84.7705 140.115 85.1514 139.939 85.4971C139.77 85.8428 139.521 86.1416 139.192 86.3936C138.87 86.6396 138.483 86.833 138.032 86.9736C137.587 87.1084 137.086 87.1758 136.529 87.1758C135.691 87.1758 134.982 87.0264 134.402 86.7275C133.822 86.4287 133.383 86.042 133.084 85.5674C132.785 85.0928 132.636 84.5918 132.636 84.0645H134.271C134.294 84.5098 134.423 84.8643 134.657 85.1279C134.892 85.3857 135.179 85.5703 135.519 85.6816C135.858 85.7871 136.195 85.8398 136.529 85.8398C136.975 85.8398 137.347 85.7812 137.646 85.6641C137.95 85.5469 138.182 85.3857 138.34 85.1807C138.498 84.9756 138.577 84.7412 138.577 84.4775Z" fill="#656565"/>
<path d="M204.145 33.8711L197.855 32.3672L200.125 12.1875H222.492V18.5586H206.605L205.621 27.3906C206.15 27.0807 206.952 26.7526 208.027 26.4062C209.103 26.0417 210.306 25.8594 211.637 25.8594C213.569 25.8594 215.283 26.1602 216.777 26.7617C218.272 27.3633 219.539 28.2383 220.578 29.3867C221.635 30.5352 222.438 31.9388 222.984 33.5977C223.531 35.2565 223.805 37.1341 223.805 39.2305C223.805 40.9987 223.531 42.6849 222.984 44.2891C222.438 45.875 221.608 47.2969 220.496 48.5547C219.384 49.7943 217.99 50.7695 216.312 51.4805C214.635 52.1914 212.648 52.5469 210.352 52.5469C208.638 52.5469 206.979 52.2917 205.375 51.7812C203.789 51.2708 202.358 50.5143 201.082 49.5117C199.824 48.5091 198.812 47.2969 198.047 45.875C197.299 44.4349 196.908 42.7943 196.871 40.9531H204.691C204.801 42.0833 205.092 43.0586 205.566 43.8789C206.059 44.681 206.706 45.3008 207.508 45.7383C208.31 46.1758 209.249 46.3945 210.324 46.3945C211.327 46.3945 212.184 46.2031 212.895 45.8203C213.605 45.4375 214.18 44.9089 214.617 44.2344C215.055 43.5417 215.374 42.7396 215.574 41.8281C215.793 40.8984 215.902 39.8958 215.902 38.8203C215.902 37.7448 215.775 36.7695 215.52 35.8945C215.264 35.0195 214.872 34.263 214.344 33.625C213.815 32.987 213.141 32.4948 212.32 32.1484C211.518 31.8021 210.579 31.6289 209.504 31.6289C208.046 31.6289 206.915 31.8568 206.113 32.3125C205.329 32.7682 204.673 33.2878 204.145 33.8711ZM255.688 28.5938V35.4844C255.688 38.474 255.368 41.0534 254.73 43.2227C254.092 45.3737 253.172 47.1419 251.969 48.5273C250.784 49.8945 249.371 50.9062 247.73 51.5625C246.09 52.2188 244.267 52.5469 242.262 52.5469C240.658 52.5469 239.163 52.3464 237.777 51.9453C236.392 51.526 235.143 50.8789 234.031 50.0039C232.938 49.1289 231.99 48.026 231.188 46.6953C230.404 45.3464 229.802 43.7422 229.383 41.8828C228.964 40.0234 228.754 37.8906 228.754 35.4844V28.5938C228.754 25.6042 229.073 23.043 229.711 20.9102C230.367 18.7591 231.288 17 232.473 15.6328C233.676 14.2656 235.098 13.263 236.738 12.625C238.379 11.9688 240.202 11.6406 242.207 11.6406C243.811 11.6406 245.297 11.8503 246.664 12.2695C248.049 12.6706 249.298 13.2995 250.41 14.1562C251.522 15.013 252.47 16.1159 253.254 17.4648C254.038 18.7956 254.639 20.3906 255.059 22.25C255.478 24.0911 255.688 26.2057 255.688 28.5938ZM247.785 36.5234V27.5273C247.785 26.0872 247.703 24.8294 247.539 23.7539C247.393 22.6784 247.165 21.7669 246.855 21.0195C246.546 20.2539 246.163 19.6341 245.707 19.1602C245.251 18.6862 244.732 18.3398 244.148 18.1211C243.565 17.9023 242.918 17.793 242.207 17.793C241.314 17.793 240.521 17.9661 239.828 18.3125C239.154 18.6589 238.579 19.2148 238.105 19.9805C237.632 20.7279 237.267 21.7305 237.012 22.9883C236.775 24.2279 236.656 25.7409 236.656 27.5273V36.5234C236.656 37.9635 236.729 39.2305 236.875 40.3242C237.039 41.418 237.276 42.3568 237.586 43.1406C237.914 43.9062 238.297 44.5352 238.734 45.0273C239.19 45.5013 239.71 45.8477 240.293 46.0664C240.895 46.2852 241.551 46.3945 242.262 46.3945C243.137 46.3945 243.911 46.2214 244.586 45.875C245.279 45.5104 245.862 44.9453 246.336 44.1797C246.828 43.3958 247.193 42.375 247.43 41.1172C247.667 39.8594 247.785 38.3281 247.785 36.5234ZM287.844 28.5938V35.4844C287.844 38.474 287.525 41.0534 286.887 43.2227C286.249 45.3737 285.328 47.1419 284.125 48.5273C282.94 49.8945 281.527 50.9062 279.887 51.5625C278.246 52.2188 276.423 52.5469 274.418 52.5469C272.814 52.5469 271.319 52.3464 269.934 51.9453C268.548 51.526 267.299 50.8789 266.188 50.0039C265.094 49.1289 264.146 48.026 263.344 46.6953C262.56 45.3464 261.958 43.7422 261.539 41.8828C261.12 40.0234 260.91 37.8906 260.91 35.4844V28.5938C260.91 25.6042 261.229 23.043 261.867 20.9102C262.523 18.7591 263.444 17 264.629 15.6328C265.832 14.2656 267.254 13.263 268.895 12.625C270.535 11.9688 272.358 11.6406 274.363 11.6406C275.967 11.6406 277.453 11.8503 278.82 12.2695C280.206 12.6706 281.454 13.2995 282.566 14.1562C283.678 15.013 284.626 16.1159 285.41 17.4648C286.194 18.7956 286.796 20.3906 287.215 22.25C287.634 24.0911 287.844 26.2057 287.844 28.5938ZM279.941 36.5234V27.5273C279.941 26.0872 279.859 24.8294 279.695 23.7539C279.549 22.6784 279.322 21.7669 279.012 21.0195C278.702 20.2539 278.319 19.6341 277.863 19.1602C277.408 18.6862 276.888 18.3398 276.305 18.1211C275.721 17.9023 275.074 17.793 274.363 17.793C273.47 17.793 272.677 17.9661 271.984 18.3125C271.31 18.6589 270.736 19.2148 270.262 19.9805C269.788 20.7279 269.423 21.7305 269.168 22.9883C268.931 24.2279 268.812 25.7409 268.812 27.5273V36.5234C268.812 37.9635 268.885 39.2305 269.031 40.3242C269.195 41.418 269.432 42.3568 269.742 43.1406C270.07 43.9062 270.453 44.5352 270.891 45.0273C271.346 45.5013 271.866 45.8477 272.449 46.0664C273.051 46.2852 273.707 46.3945 274.418 46.3945C275.293 46.3945 276.068 46.2214 276.742 45.875C277.435 45.5104 278.018 44.9453 278.492 44.1797C278.984 43.3958 279.349 42.375 279.586 41.1172C279.823 39.8594 279.941 38.3281 279.941 36.5234ZM301.406 9.97266V52H293.531V9.97266H301.406ZM320.055 22.4141L307.203 37.0703L300.312 44.043L297.441 38.3555L302.91 31.4102L310.594 22.4141H320.055ZM311.879 52L303.129 38.3281L308.57 33.5703L320.957 52H311.879Z" fill="#121212"/>
<path d="M365.422 30.6445V35.4023H338.133V30.6445H365.422ZM354.32 19.0234V48.0078H349.262V19.0234H354.32Z" fill="#FF5634"/>
<path d="M190.485 74.2031H194.722C195.683 74.2031 196.494 74.3496 197.156 74.6426C197.824 74.9355 198.331 75.3691 198.677 75.9434C199.028 76.5117 199.204 77.2119 199.204 78.0439C199.204 78.6299 199.084 79.166 198.844 79.6523C198.609 80.1328 198.27 80.543 197.824 80.8828C197.385 81.2168 196.857 81.4658 196.242 81.6299L195.768 81.8145H191.786L191.769 80.4346H194.774C195.384 80.4346 195.891 80.3291 196.295 80.1182C196.699 79.9014 197.004 79.6113 197.209 79.248C197.414 78.8848 197.517 78.4834 197.517 78.0439C197.517 77.5518 197.42 77.1211 197.227 76.752C197.033 76.3828 196.729 76.0986 196.312 75.8994C195.902 75.6943 195.372 75.5918 194.722 75.5918H192.182V87H190.485V74.2031ZM197.965 87L194.854 81.1992L196.62 81.1904L199.775 86.8945V87H197.965ZM205.277 87.1758C204.615 87.1758 204.015 87.0645 203.476 86.8418C202.942 86.6133 202.482 86.2939 202.096 85.8838C201.715 85.4736 201.422 84.9873 201.217 84.4248C201.012 83.8623 200.909 83.2471 200.909 82.5791V82.21C200.909 81.4365 201.023 80.748 201.252 80.1445C201.48 79.5352 201.791 79.0195 202.184 78.5977C202.576 78.1758 203.021 77.8564 203.52 77.6396C204.018 77.4229 204.533 77.3145 205.066 77.3145C205.746 77.3145 206.332 77.4316 206.824 77.666C207.322 77.9004 207.729 78.2285 208.046 78.6504C208.362 79.0664 208.597 79.5586 208.749 80.127C208.901 80.6895 208.978 81.3047 208.978 81.9727V82.7021H201.876V81.375H207.352V81.252C207.328 80.8301 207.24 80.4199 207.088 80.0215C206.941 79.623 206.707 79.2949 206.385 79.0371C206.062 78.7793 205.623 78.6504 205.066 78.6504C204.697 78.6504 204.357 78.7295 204.047 78.8877C203.736 79.04 203.47 79.2686 203.247 79.5732C203.024 79.8779 202.852 80.25 202.729 80.6895C202.605 81.1289 202.544 81.6357 202.544 82.21V82.5791C202.544 83.0303 202.605 83.4551 202.729 83.8535C202.857 84.2461 203.042 84.5918 203.282 84.8906C203.528 85.1895 203.824 85.4238 204.17 85.5938C204.521 85.7637 204.92 85.8486 205.365 85.8486C205.939 85.8486 206.426 85.7314 206.824 85.4971C207.223 85.2627 207.571 84.9492 207.87 84.5566L208.854 85.3389C208.649 85.6494 208.389 85.9453 208.072 86.2266C207.756 86.5078 207.366 86.7363 206.903 86.9121C206.446 87.0879 205.904 87.1758 205.277 87.1758ZM216.413 84.4775C216.413 84.2432 216.36 84.0264 216.255 83.8271C216.155 83.6221 215.947 83.4375 215.631 83.2734C215.32 83.1035 214.852 82.957 214.225 82.834C213.697 82.7227 213.22 82.5908 212.792 82.4385C212.37 82.2861 212.01 82.1016 211.711 81.8848C211.418 81.668 211.192 81.4131 211.034 81.1201C210.876 80.8271 210.797 80.4844 210.797 80.0918C210.797 79.7168 210.879 79.3623 211.043 79.0283C211.213 78.6943 211.45 78.3984 211.755 78.1406C212.065 77.8828 212.438 77.6807 212.871 77.5342C213.305 77.3877 213.788 77.3145 214.321 77.3145C215.083 77.3145 215.733 77.4492 216.272 77.7188C216.812 77.9883 217.225 78.3486 217.512 78.7998C217.799 79.2451 217.942 79.7402 217.942 80.2852H216.316C216.316 80.0215 216.237 79.7666 216.079 79.5205C215.927 79.2686 215.701 79.0605 215.402 78.8965C215.109 78.7324 214.749 78.6504 214.321 78.6504C213.87 78.6504 213.504 78.7207 213.223 78.8613C212.947 78.9961 212.745 79.1689 212.616 79.3799C212.493 79.5908 212.432 79.8135 212.432 80.0479C212.432 80.2236 212.461 80.3818 212.52 80.5225C212.584 80.6572 212.695 80.7832 212.854 80.9004C213.012 81.0117 213.234 81.1172 213.521 81.2168C213.809 81.3164 214.175 81.416 214.62 81.5156C215.399 81.6914 216.041 81.9023 216.545 82.1484C217.049 82.3945 217.424 82.6963 217.67 83.0537C217.916 83.4111 218.039 83.8447 218.039 84.3545C218.039 84.7705 217.951 85.1514 217.775 85.4971C217.605 85.8428 217.356 86.1416 217.028 86.3936C216.706 86.6396 216.319 86.833 215.868 86.9736C215.423 87.1084 214.922 87.1758 214.365 87.1758C213.527 87.1758 212.818 87.0264 212.238 86.7275C211.658 86.4287 211.219 86.042 210.92 85.5674C210.621 85.0928 210.472 84.5918 210.472 84.0645H212.106C212.13 84.5098 212.259 84.8643 212.493 85.1279C212.728 85.3857 213.015 85.5703 213.354 85.6816C213.694 85.7871 214.031 85.8398 214.365 85.8398C214.811 85.8398 215.183 85.7812 215.481 85.6641C215.786 85.5469 216.018 85.3857 216.176 85.1807C216.334 84.9756 216.413 84.7412 216.413 84.4775ZM224.156 77.4902V78.7383H219.015V77.4902H224.156ZM220.755 75.1787H222.381V84.6445C222.381 84.9668 222.431 85.21 222.53 85.374C222.63 85.5381 222.759 85.6465 222.917 85.6992C223.075 85.752 223.245 85.7783 223.427 85.7783C223.562 85.7783 223.702 85.7666 223.849 85.7432C224.001 85.7139 224.115 85.6904 224.191 85.6729L224.2 87C224.071 87.041 223.901 87.0791 223.69 87.1143C223.485 87.1553 223.236 87.1758 222.943 87.1758C222.545 87.1758 222.179 87.0967 221.845 86.9385C221.511 86.7803 221.244 86.5166 221.045 86.1475C220.852 85.7725 220.755 85.2686 220.755 84.6357V75.1787ZM231.671 85.374V80.4785C231.671 80.1035 231.595 79.7783 231.442 79.5029C231.296 79.2217 231.073 79.0049 230.774 78.8525C230.476 78.7002 230.106 78.624 229.667 78.624C229.257 78.624 228.896 78.6943 228.586 78.835C228.281 78.9756 228.041 79.1602 227.865 79.3887C227.695 79.6172 227.61 79.8633 227.61 80.127H225.984C225.984 79.7871 226.072 79.4502 226.248 79.1162C226.424 78.7822 226.676 78.4805 227.004 78.2109C227.338 77.9355 227.736 77.7188 228.199 77.5605C228.668 77.3965 229.189 77.3145 229.764 77.3145C230.455 77.3145 231.064 77.4316 231.592 77.666C232.125 77.9004 232.541 78.2549 232.84 78.7295C233.145 79.1982 233.297 79.7871 233.297 80.4961V84.9258C233.297 85.2422 233.323 85.5791 233.376 85.9365C233.435 86.2939 233.52 86.6016 233.631 86.8594V87H231.935C231.853 86.8125 231.788 86.5635 231.741 86.2529C231.694 85.9365 231.671 85.6436 231.671 85.374ZM231.952 81.2344L231.97 82.377H230.326C229.863 82.377 229.45 82.415 229.087 82.4912C228.724 82.5615 228.419 82.6699 228.173 82.8164C227.927 82.9629 227.739 83.1475 227.61 83.3701C227.481 83.5869 227.417 83.8418 227.417 84.1348C227.417 84.4336 227.484 84.7061 227.619 84.9521C227.754 85.1982 227.956 85.3945 228.226 85.541C228.501 85.6816 228.838 85.752 229.236 85.752C229.734 85.752 230.174 85.6465 230.555 85.4355C230.936 85.2246 231.237 84.9668 231.46 84.6621C231.688 84.3574 231.812 84.0615 231.829 83.7744L232.523 84.5566C232.482 84.8027 232.371 85.0752 232.189 85.374C232.008 85.6729 231.765 85.96 231.46 86.2354C231.161 86.5049 230.804 86.7305 230.388 86.9121C229.978 87.0879 229.515 87.1758 228.999 87.1758C228.354 87.1758 227.789 87.0498 227.303 86.7979C226.822 86.5459 226.447 86.209 226.178 85.7871C225.914 85.3594 225.782 84.8818 225.782 84.3545C225.782 83.8447 225.882 83.3965 226.081 83.0098C226.28 82.6172 226.567 82.292 226.942 82.0342C227.317 81.7705 227.769 81.5713 228.296 81.4365C228.823 81.3018 229.412 81.2344 230.062 81.2344H231.952ZM241.673 84.8027V77.4902H243.308V87H241.752L241.673 84.8027ZM241.98 82.7988L242.657 82.7812C242.657 83.4141 242.59 84 242.455 84.5391C242.326 85.0723 242.115 85.5352 241.822 85.9277C241.529 86.3203 241.146 86.6279 240.671 86.8506C240.196 87.0674 239.619 87.1758 238.939 87.1758C238.477 87.1758 238.052 87.1084 237.665 86.9736C237.284 86.8389 236.956 86.6309 236.681 86.3496C236.405 86.0684 236.191 85.7021 236.039 85.251C235.893 84.7998 235.819 84.2578 235.819 83.625V77.4902H237.445V83.6426C237.445 84.0703 237.492 84.4248 237.586 84.7061C237.686 84.9814 237.817 85.2012 237.981 85.3652C238.151 85.5234 238.339 85.6348 238.544 85.6992C238.755 85.7637 238.972 85.7959 239.194 85.7959C239.886 85.7959 240.434 85.6641 240.838 85.4004C241.242 85.1309 241.532 84.7705 241.708 84.3193C241.89 83.8623 241.98 83.3555 241.98 82.7988ZM247.412 78.9844V87H245.786V77.4902H247.368L247.412 78.9844ZM250.383 77.4375L250.374 78.9492C250.239 78.9199 250.11 78.9023 249.987 78.8965C249.87 78.8848 249.735 78.8789 249.583 78.8789C249.208 78.8789 248.877 78.9375 248.59 79.0547C248.303 79.1719 248.06 79.3359 247.86 79.5469C247.661 79.7578 247.503 80.0098 247.386 80.3027C247.274 80.5898 247.201 80.9062 247.166 81.252L246.709 81.5156C246.709 80.9414 246.765 80.4023 246.876 79.8984C246.993 79.3945 247.172 78.9492 247.412 78.5625C247.652 78.1699 247.957 77.8652 248.326 77.6484C248.701 77.4258 249.146 77.3145 249.662 77.3145C249.779 77.3145 249.914 77.3291 250.066 77.3584C250.219 77.3818 250.324 77.4082 250.383 77.4375ZM257.142 85.374V80.4785C257.142 80.1035 257.065 79.7783 256.913 79.5029C256.767 79.2217 256.544 79.0049 256.245 78.8525C255.946 78.7002 255.577 78.624 255.138 78.624C254.728 78.624 254.367 78.6943 254.057 78.835C253.752 78.9756 253.512 79.1602 253.336 79.3887C253.166 79.6172 253.081 79.8633 253.081 80.127H251.455C251.455 79.7871 251.543 79.4502 251.719 79.1162C251.895 78.7822 252.146 78.4805 252.475 78.2109C252.809 77.9355 253.207 77.7188 253.67 77.5605C254.139 77.3965 254.66 77.3145 255.234 77.3145C255.926 77.3145 256.535 77.4316 257.062 77.666C257.596 77.9004 258.012 78.2549 258.311 78.7295C258.615 79.1982 258.768 79.7871 258.768 80.4961V84.9258C258.768 85.2422 258.794 85.5791 258.847 85.9365C258.905 86.2939 258.99 86.6016 259.102 86.8594V87H257.405C257.323 86.8125 257.259 86.5635 257.212 86.2529C257.165 85.9365 257.142 85.6436 257.142 85.374ZM257.423 81.2344L257.44 82.377H255.797C255.334 82.377 254.921 82.415 254.558 82.4912C254.194 82.5615 253.89 82.6699 253.644 82.8164C253.397 82.9629 253.21 83.1475 253.081 83.3701C252.952 83.5869 252.888 83.8418 252.888 84.1348C252.888 84.4336 252.955 84.7061 253.09 84.9521C253.225 85.1982 253.427 85.3945 253.696 85.541C253.972 85.6816 254.309 85.752 254.707 85.752C255.205 85.752 255.645 85.6465 256.025 85.4355C256.406 85.2246 256.708 84.9668 256.931 84.6621C257.159 84.3574 257.282 84.0615 257.3 83.7744L257.994 84.5566C257.953 84.8027 257.842 85.0752 257.66 85.374C257.479 85.6729 257.235 85.96 256.931 86.2354C256.632 86.5049 256.274 86.7305 255.858 86.9121C255.448 87.0879 254.985 87.1758 254.47 87.1758C253.825 87.1758 253.26 87.0498 252.773 86.7979C252.293 86.5459 251.918 86.209 251.648 85.7871C251.385 85.3594 251.253 84.8818 251.253 84.3545C251.253 83.8447 251.353 83.3965 251.552 83.0098C251.751 82.6172 252.038 82.292 252.413 82.0342C252.788 81.7705 253.239 81.5713 253.767 81.4365C254.294 81.3018 254.883 81.2344 255.533 81.2344H257.423ZM262.951 79.5205V87H261.325V77.4902H262.863L262.951 79.5205ZM262.564 81.8848L261.888 81.8584C261.894 81.208 261.99 80.6074 262.178 80.0566C262.365 79.5 262.629 79.0166 262.969 78.6064C263.309 78.1963 263.713 77.8799 264.182 77.6572C264.656 77.4287 265.181 77.3145 265.755 77.3145C266.224 77.3145 266.646 77.3789 267.021 77.5078C267.396 77.6309 267.715 77.8301 267.979 78.1055C268.248 78.3809 268.453 78.7383 268.594 79.1777C268.734 79.6113 268.805 80.1416 268.805 80.7686V87H267.17V80.751C267.17 80.2529 267.097 79.8545 266.95 79.5557C266.804 79.251 266.59 79.0312 266.309 78.8965C266.027 78.7559 265.682 78.6855 265.271 78.6855C264.867 78.6855 264.498 78.7705 264.164 78.9404C263.836 79.1104 263.552 79.3447 263.312 79.6436C263.077 79.9424 262.893 80.2852 262.758 80.6719C262.629 81.0527 262.564 81.457 262.564 81.8848ZM275.256 77.4902V78.7383H270.114V77.4902H275.256ZM271.854 75.1787H273.48V84.6445C273.48 84.9668 273.53 85.21 273.63 85.374C273.729 85.5381 273.858 85.6465 274.017 85.6992C274.175 85.752 274.345 85.7783 274.526 85.7783C274.661 85.7783 274.802 85.7666 274.948 85.7432C275.101 85.7139 275.215 85.6904 275.291 85.6729L275.3 87C275.171 87.041 275.001 87.0791 274.79 87.1143C274.585 87.1553 274.336 87.1758 274.043 87.1758C273.645 87.1758 273.278 87.0967 272.944 86.9385C272.61 86.7803 272.344 86.5166 272.145 86.1475C271.951 85.7725 271.854 85.2686 271.854 84.6357V75.1787ZM282.7 84.4775C282.7 84.2432 282.647 84.0264 282.542 83.8271C282.442 83.6221 282.234 83.4375 281.918 83.2734C281.607 83.1035 281.139 82.957 280.512 82.834C279.984 82.7227 279.507 82.5908 279.079 82.4385C278.657 82.2861 278.297 82.1016 277.998 81.8848C277.705 81.668 277.479 81.4131 277.321 81.1201C277.163 80.8271 277.084 80.4844 277.084 80.0918C277.084 79.7168 277.166 79.3623 277.33 79.0283C277.5 78.6943 277.737 78.3984 278.042 78.1406C278.353 77.8828 278.725 77.6807 279.158 77.5342C279.592 77.3877 280.075 77.3145 280.608 77.3145C281.37 77.3145 282.021 77.4492 282.56 77.7188C283.099 77.9883 283.512 78.3486 283.799 78.7998C284.086 79.2451 284.229 79.7402 284.229 80.2852H282.604C282.604 80.0215 282.524 79.7666 282.366 79.5205C282.214 79.2686 281.988 79.0605 281.689 78.8965C281.396 78.7324 281.036 78.6504 280.608 78.6504C280.157 78.6504 279.791 78.7207 279.51 78.8613C279.234 78.9961 279.032 79.1689 278.903 79.3799C278.78 79.5908 278.719 79.8135 278.719 80.0479C278.719 80.2236 278.748 80.3818 278.807 80.5225C278.871 80.6572 278.982 80.7832 279.141 80.9004C279.299 81.0117 279.521 81.1172 279.809 81.2168C280.096 81.3164 280.462 81.416 280.907 81.5156C281.687 81.6914 282.328 81.9023 282.832 82.1484C283.336 82.3945 283.711 82.6963 283.957 83.0537C284.203 83.4111 284.326 83.8447 284.326 84.3545C284.326 84.7705 284.238 85.1514 284.062 85.4971C283.893 85.8428 283.644 86.1416 283.315 86.3936C282.993 86.6396 282.606 86.833 282.155 86.9736C281.71 87.1084 281.209 87.1758 280.652 87.1758C279.814 87.1758 279.105 87.0264 278.525 86.7275C277.945 86.4287 277.506 86.042 277.207 85.5674C276.908 85.0928 276.759 84.5918 276.759 84.0645H278.394C278.417 84.5098 278.546 84.8643 278.78 85.1279C279.015 85.3857 279.302 85.5703 279.642 85.6816C279.981 85.7871 280.318 85.8398 280.652 85.8398C281.098 85.8398 281.47 85.7812 281.769 85.6641C282.073 85.5469 282.305 85.3857 282.463 85.1807C282.621 84.9756 282.7 84.7412 282.7 84.4775ZM296.534 85.374V80.4785C296.534 80.1035 296.458 79.7783 296.306 79.5029C296.159 79.2217 295.937 79.0049 295.638 78.8525C295.339 78.7002 294.97 78.624 294.53 78.624C294.12 78.624 293.76 78.6943 293.449 78.835C293.145 78.9756 292.904 79.1602 292.729 79.3887C292.559 79.6172 292.474 79.8633 292.474 80.127H290.848C290.848 79.7871 290.936 79.4502 291.111 79.1162C291.287 78.7822 291.539 78.4805 291.867 78.2109C292.201 77.9355 292.6 77.7188 293.062 77.5605C293.531 77.3965 294.053 77.3145 294.627 77.3145C295.318 77.3145 295.928 77.4316 296.455 77.666C296.988 77.9004 297.404 78.2549 297.703 78.7295C298.008 79.1982 298.16 79.7871 298.16 80.4961V84.9258C298.16 85.2422 298.187 85.5791 298.239 85.9365C298.298 86.2939 298.383 86.6016 298.494 86.8594V87H296.798C296.716 86.8125 296.651 86.5635 296.604 86.2529C296.558 85.9365 296.534 85.6436 296.534 85.374ZM296.815 81.2344L296.833 82.377H295.189C294.727 82.377 294.313 82.415 293.95 82.4912C293.587 82.5615 293.282 82.6699 293.036 82.8164C292.79 82.9629 292.603 83.1475 292.474 83.3701C292.345 83.5869 292.28 83.8418 292.28 84.1348C292.28 84.4336 292.348 84.7061 292.482 84.9521C292.617 85.1982 292.819 85.3945 293.089 85.541C293.364 85.6816 293.701 85.752 294.1 85.752C294.598 85.752 295.037 85.6465 295.418 85.4355C295.799 85.2246 296.101 84.9668 296.323 84.6621C296.552 84.3574 296.675 84.0615 296.692 83.7744L297.387 84.5566C297.346 84.8027 297.234 85.0752 297.053 85.374C296.871 85.6729 296.628 85.96 296.323 86.2354C296.024 86.5049 295.667 86.7305 295.251 86.9121C294.841 87.0879 294.378 87.1758 293.862 87.1758C293.218 87.1758 292.652 87.0498 292.166 86.7979C291.686 86.5459 291.311 86.209 291.041 85.7871C290.777 85.3594 290.646 84.8818 290.646 84.3545C290.646 83.8447 290.745 83.3965 290.944 83.0098C291.144 82.6172 291.431 82.292 291.806 82.0342C292.181 81.7705 292.632 81.5713 293.159 81.4365C293.687 81.3018 294.275 81.2344 294.926 81.2344H296.815ZM303.469 85.5322L306.07 77.4902H307.731L304.312 87H303.223L303.469 85.5322ZM301.298 77.4902L303.979 85.5762L304.163 87H303.073L299.628 77.4902H301.298ZM314.763 85.374V80.4785C314.763 80.1035 314.687 79.7783 314.534 79.5029C314.388 79.2217 314.165 79.0049 313.866 78.8525C313.567 78.7002 313.198 78.624 312.759 78.624C312.349 78.624 311.988 78.6943 311.678 78.835C311.373 78.9756 311.133 79.1602 310.957 79.3887C310.787 79.6172 310.702 79.8633 310.702 80.127H309.076C309.076 79.7871 309.164 79.4502 309.34 79.1162C309.516 78.7822 309.768 78.4805 310.096 78.2109C310.43 77.9355 310.828 77.7188 311.291 77.5605C311.76 77.3965 312.281 77.3145 312.855 77.3145C313.547 77.3145 314.156 77.4316 314.684 77.666C315.217 77.9004 315.633 78.2549 315.932 78.7295C316.236 79.1982 316.389 79.7871 316.389 80.4961V84.9258C316.389 85.2422 316.415 85.5791 316.468 85.9365C316.526 86.2939 316.611 86.6016 316.723 86.8594V87H315.026C314.944 86.8125 314.88 86.5635 314.833 86.2529C314.786 85.9365 314.763 85.6436 314.763 85.374ZM315.044 81.2344L315.062 82.377H313.418C312.955 82.377 312.542 82.415 312.179 82.4912C311.815 82.5615 311.511 82.6699 311.265 82.8164C311.019 82.9629 310.831 83.1475 310.702 83.3701C310.573 83.5869 310.509 83.8418 310.509 84.1348C310.509 84.4336 310.576 84.7061 310.711 84.9521C310.846 85.1982 311.048 85.3945 311.317 85.541C311.593 85.6816 311.93 85.752 312.328 85.752C312.826 85.752 313.266 85.6465 313.646 85.4355C314.027 85.2246 314.329 84.9668 314.552 84.6621C314.78 84.3574 314.903 84.0615 314.921 83.7744L315.615 84.5566C315.574 84.8027 315.463 85.0752 315.281 85.374C315.1 85.6729 314.856 85.96 314.552 86.2354C314.253 86.5049 313.896 86.7305 313.479 86.9121C313.069 87.0879 312.606 87.1758 312.091 87.1758C311.446 87.1758 310.881 87.0498 310.395 86.7979C309.914 86.5459 309.539 86.209 309.27 85.7871C309.006 85.3594 308.874 84.8818 308.874 84.3545C308.874 83.8447 308.974 83.3965 309.173 83.0098C309.372 82.6172 309.659 82.292 310.034 82.0342C310.409 81.7705 310.86 81.5713 311.388 81.4365C311.915 81.3018 312.504 81.2344 313.154 81.2344H315.044ZM320.713 77.4902V87H319.078V77.4902H320.713ZM318.955 74.9678C318.955 74.7041 319.034 74.4814 319.192 74.2998C319.356 74.1182 319.597 74.0273 319.913 74.0273C320.224 74.0273 320.461 74.1182 320.625 74.2998C320.795 74.4814 320.88 74.7041 320.88 74.9678C320.88 75.2197 320.795 75.4365 320.625 75.6182C320.461 75.7939 320.224 75.8818 319.913 75.8818C319.597 75.8818 319.356 75.7939 319.192 75.6182C319.034 75.4365 318.955 75.2197 318.955 74.9678ZM325.09 73.5V87H323.455V73.5H325.09ZM333.308 85.374V80.4785C333.308 80.1035 333.231 79.7783 333.079 79.5029C332.933 79.2217 332.71 79.0049 332.411 78.8525C332.112 78.7002 331.743 78.624 331.304 78.624C330.894 78.624 330.533 78.6943 330.223 78.835C329.918 78.9756 329.678 79.1602 329.502 79.3887C329.332 79.6172 329.247 79.8633 329.247 80.127H327.621C327.621 79.7871 327.709 79.4502 327.885 79.1162C328.061 78.7822 328.312 78.4805 328.641 78.2109C328.975 77.9355 329.373 77.7188 329.836 77.5605C330.305 77.3965 330.826 77.3145 331.4 77.3145C332.092 77.3145 332.701 77.4316 333.229 77.666C333.762 77.9004 334.178 78.2549 334.477 78.7295C334.781 79.1982 334.934 79.7871 334.934 80.4961V84.9258C334.934 85.2422 334.96 85.5791 335.013 85.9365C335.071 86.2939 335.156 86.6016 335.268 86.8594V87H333.571C333.489 86.8125 333.425 86.5635 333.378 86.2529C333.331 85.9365 333.308 85.6436 333.308 85.374ZM333.589 81.2344L333.606 82.377H331.963C331.5 82.377 331.087 82.415 330.724 82.4912C330.36 82.5615 330.056 82.6699 329.81 82.8164C329.563 82.9629 329.376 83.1475 329.247 83.3701C329.118 83.5869 329.054 83.8418 329.054 84.1348C329.054 84.4336 329.121 84.7061 329.256 84.9521C329.391 85.1982 329.593 85.3945 329.862 85.541C330.138 85.6816 330.475 85.752 330.873 85.752C331.371 85.752 331.811 85.6465 332.191 85.4355C332.572 85.2246 332.874 84.9668 333.097 84.6621C333.325 84.3574 333.448 84.0615 333.466 83.7744L334.16 84.5566C334.119 84.8027 334.008 85.0752 333.826 85.374C333.645 85.6729 333.401 85.96 333.097 86.2354C332.798 86.5049 332.44 86.7305 332.024 86.9121C331.614 87.0879 331.151 87.1758 330.636 87.1758C329.991 87.1758 329.426 87.0498 328.939 86.7979C328.459 86.5459 328.084 86.209 327.814 85.7871C327.551 85.3594 327.419 84.8818 327.419 84.3545C327.419 83.8447 327.519 83.3965 327.718 83.0098C327.917 82.6172 328.204 82.292 328.579 82.0342C328.954 81.7705 329.405 81.5713 329.933 81.4365C330.46 81.3018 331.049 81.2344 331.699 81.2344H333.589ZM337.482 73.5H339.117V85.1543L338.977 87H337.482V73.5ZM345.542 82.166V82.3506C345.542 83.042 345.46 83.6836 345.296 84.2754C345.132 84.8613 344.892 85.3711 344.575 85.8047C344.259 86.2383 343.872 86.5752 343.415 86.8154C342.958 87.0557 342.434 87.1758 341.842 87.1758C341.238 87.1758 340.708 87.0732 340.251 86.8682C339.8 86.6572 339.419 86.3555 339.108 85.9629C338.798 85.5703 338.549 85.0957 338.361 84.5391C338.18 83.9824 338.054 83.3555 337.983 82.6582V81.8496C338.054 81.1465 338.18 80.5166 338.361 79.96C338.549 79.4033 338.798 78.9287 339.108 78.5361C339.419 78.1377 339.8 77.8359 340.251 77.6309C340.702 77.4199 341.227 77.3145 341.824 77.3145C342.422 77.3145 342.952 77.4316 343.415 77.666C343.878 77.8945 344.265 78.2227 344.575 78.6504C344.892 79.0781 345.132 79.5908 345.296 80.1885C345.46 80.7803 345.542 81.4395 345.542 82.166ZM343.907 82.3506V82.166C343.907 81.6914 343.863 81.2461 343.775 80.8301C343.688 80.4082 343.547 80.0391 343.354 79.7227C343.16 79.4004 342.905 79.1484 342.589 78.9668C342.272 78.7793 341.883 78.6855 341.42 78.6855C341.01 78.6855 340.652 78.7559 340.348 78.8965C340.049 79.0371 339.794 79.2275 339.583 79.4678C339.372 79.7021 339.199 79.9717 339.064 80.2764C338.936 80.5752 338.839 80.8857 338.774 81.208V83.3262C338.868 83.7363 339.021 84.1318 339.231 84.5127C339.448 84.8877 339.735 85.1953 340.093 85.4355C340.456 85.6758 340.904 85.7959 341.438 85.7959C341.877 85.7959 342.252 85.708 342.562 85.5322C342.879 85.3506 343.134 85.1016 343.327 84.7852C343.526 84.4688 343.673 84.1025 343.767 83.6865C343.86 83.2705 343.907 82.8252 343.907 82.3506ZM349.365 73.5V87H347.73V73.5H349.365ZM355.922 87.1758C355.26 87.1758 354.659 87.0645 354.12 86.8418C353.587 86.6133 353.127 86.2939 352.74 85.8838C352.359 85.4736 352.066 84.9873 351.861 84.4248C351.656 83.8623 351.554 83.2471 351.554 82.5791V82.21C351.554 81.4365 351.668 80.748 351.896 80.1445C352.125 79.5352 352.436 79.0195 352.828 78.5977C353.221 78.1758 353.666 77.8564 354.164 77.6396C354.662 77.4229 355.178 77.3145 355.711 77.3145C356.391 77.3145 356.977 77.4316 357.469 77.666C357.967 77.9004 358.374 78.2285 358.69 78.6504C359.007 79.0664 359.241 79.5586 359.394 80.127C359.546 80.6895 359.622 81.3047 359.622 81.9727V82.7021H352.521V81.375H357.996V81.252C357.973 80.8301 357.885 80.4199 357.732 80.0215C357.586 79.623 357.352 79.2949 357.029 79.0371C356.707 78.7793 356.268 78.6504 355.711 78.6504C355.342 78.6504 355.002 78.7295 354.691 78.8877C354.381 79.04 354.114 79.2686 353.892 79.5732C353.669 79.8779 353.496 80.25 353.373 80.6895C353.25 81.1289 353.188 81.6357 353.188 82.21V82.5791C353.188 83.0303 353.25 83.4551 353.373 83.8535C353.502 84.2461 353.687 84.5918 353.927 84.8906C354.173 85.1895 354.469 85.4238 354.814 85.5938C355.166 85.7637 355.564 85.8486 356.01 85.8486C356.584 85.8486 357.07 85.7314 357.469 85.4971C357.867 85.2627 358.216 84.9492 358.515 84.5566L359.499 85.3389C359.294 85.6494 359.033 85.9453 358.717 86.2266C358.4 86.5078 358.011 86.7363 357.548 86.9121C357.091 87.0879 356.549 87.1758 355.922 87.1758Z" fill="#656565"/>
<path d="M429.801 28.6758H434.012C435.361 28.6758 436.473 28.4479 437.348 27.9922C438.223 27.5182 438.87 26.862 439.289 26.0234C439.727 25.1667 439.945 24.1732 439.945 23.043C439.945 22.0221 439.745 21.1198 439.344 20.3359C438.961 19.5339 438.368 18.9141 437.566 18.4766C436.764 18.0208 435.753 17.793 434.531 17.793C433.565 17.793 432.672 17.9844 431.852 18.3672C431.031 18.75 430.375 19.2878 429.883 19.9805C429.391 20.6732 429.145 21.5117 429.145 22.4961H421.242C421.242 20.3086 421.826 18.4036 422.992 16.7812C424.177 15.1589 425.763 13.8919 427.75 12.9805C429.737 12.069 431.924 11.6133 434.312 11.6133C437.01 11.6133 439.371 12.0508 441.395 12.9258C443.418 13.7826 444.995 15.0495 446.125 16.7266C447.255 18.4036 447.82 20.4818 447.82 22.9609C447.82 24.2188 447.529 25.4401 446.945 26.625C446.362 27.7917 445.523 28.849 444.43 29.7969C443.354 30.7266 442.042 31.474 440.492 32.0391C438.943 32.5859 437.202 32.8594 435.27 32.8594H429.801V28.6758ZM429.801 34.6641V30.5898H435.27C437.439 30.5898 439.344 30.8359 440.984 31.3281C442.625 31.8203 444.001 32.5312 445.113 33.4609C446.225 34.3724 447.064 35.457 447.629 36.7148C448.194 37.9544 448.477 39.3307 448.477 40.8438C448.477 42.7031 448.121 44.362 447.41 45.8203C446.699 47.2604 445.697 48.4818 444.402 49.4844C443.126 50.487 441.632 51.2526 439.918 51.7812C438.204 52.2917 436.336 52.5469 434.312 52.5469C432.635 52.5469 430.986 52.319 429.363 51.8633C427.759 51.3893 426.301 50.6875 424.988 49.7578C423.694 48.8099 422.655 47.625 421.871 46.2031C421.105 44.763 420.723 43.0586 420.723 41.0898H428.625C428.625 42.1107 428.88 43.0221 429.391 43.8242C429.901 44.6263 430.603 45.2552 431.496 45.7109C432.408 46.1667 433.419 46.3945 434.531 46.3945C435.789 46.3945 436.865 46.1667 437.758 45.7109C438.669 45.237 439.362 44.5807 439.836 43.7422C440.328 42.8854 440.574 41.8919 440.574 40.7617C440.574 39.3034 440.31 38.1367 439.781 37.2617C439.253 36.3685 438.496 35.7122 437.512 35.293C436.527 34.8737 435.361 34.6641 434.012 34.6641H429.801ZM480.688 28.5938V35.4844C480.688 38.474 480.368 41.0534 479.73 43.2227C479.092 45.3737 478.172 47.1419 476.969 48.5273C475.784 49.8945 474.371 50.9062 472.73 51.5625C471.09 52.2188 469.267 52.5469 467.262 52.5469C465.658 52.5469 464.163 52.3464 462.777 51.9453C461.392 51.526 460.143 50.8789 459.031 50.0039C457.938 49.1289 456.99 48.026 456.188 46.6953C455.404 45.3464 454.802 43.7422 454.383 41.8828C453.964 40.0234 453.754 37.8906 453.754 35.4844V28.5938C453.754 25.6042 454.073 23.043 454.711 20.9102C455.367 18.7591 456.288 17 457.473 15.6328C458.676 14.2656 460.098 13.263 461.738 12.625C463.379 11.9688 465.202 11.6406 467.207 11.6406C468.811 11.6406 470.297 11.8503 471.664 12.2695C473.049 12.6706 474.298 13.2995 475.41 14.1562C476.522 15.013 477.47 16.1159 478.254 17.4648C479.038 18.7956 479.639 20.3906 480.059 22.25C480.478 24.0911 480.688 26.2057 480.688 28.5938ZM472.785 36.5234V27.5273C472.785 26.0872 472.703 24.8294 472.539 23.7539C472.393 22.6784 472.165 21.7669 471.855 21.0195C471.546 20.2539 471.163 19.6341 470.707 19.1602C470.251 18.6862 469.732 18.3398 469.148 18.1211C468.565 17.9023 467.918 17.793 467.207 17.793C466.314 17.793 465.521 17.9661 464.828 18.3125C464.154 18.6589 463.579 19.2148 463.105 19.9805C462.632 20.7279 462.267 21.7305 462.012 22.9883C461.775 24.2279 461.656 25.7409 461.656 27.5273V36.5234C461.656 37.9635 461.729 39.2305 461.875 40.3242C462.039 41.418 462.276 42.3568 462.586 43.1406C462.914 43.9062 463.297 44.5352 463.734 45.0273C464.19 45.5013 464.71 45.8477 465.293 46.0664C465.895 46.2852 466.551 46.3945 467.262 46.3945C468.137 46.3945 468.911 46.2214 469.586 45.875C470.279 45.5104 470.862 44.9453 471.336 44.1797C471.828 43.3958 472.193 42.375 472.43 41.1172C472.667 39.8594 472.785 38.3281 472.785 36.5234ZM490.613 12.1875H497.559L507.785 41.418L518.012 12.1875H524.957L510.574 52H504.996L490.613 12.1875ZM486.867 12.1875H493.785L495.043 40.6797V52H486.867V12.1875ZM521.785 12.1875H528.73V52H520.527V40.6797L521.785 12.1875Z" fill="#121212"/>
<path d="M559.422 30.6445V35.4023H532.133V30.6445H559.422ZM548.32 19.0234V48.0078H543.262V19.0234H548.32Z" fill="#FF5634"/>
<path d="M415.306 83.7656C415.306 83.4668 415.259 83.2031 415.165 82.9746C415.077 82.7402 414.919 82.5293 414.69 82.3418C414.468 82.1543 414.157 81.9756 413.759 81.8057C413.366 81.6357 412.868 81.4629 412.265 81.2871C411.632 81.0996 411.061 80.8916 410.551 80.6631C410.041 80.4287 409.604 80.1621 409.241 79.8633C408.878 79.5645 408.6 79.2217 408.406 78.835C408.213 78.4482 408.116 78.0059 408.116 77.5078C408.116 77.0098 408.219 76.5498 408.424 76.1279C408.629 75.7061 408.922 75.3398 409.303 75.0293C409.689 74.7129 410.149 74.4668 410.683 74.291C411.216 74.1152 411.811 74.0273 412.467 74.0273C413.428 74.0273 414.242 74.2119 414.91 74.5811C415.584 74.9443 416.097 75.4219 416.448 76.0137C416.8 76.5996 416.976 77.2266 416.976 77.8945H415.288C415.288 77.4141 415.186 76.9893 414.98 76.6201C414.775 76.2451 414.465 75.9521 414.049 75.7412C413.633 75.5244 413.105 75.416 412.467 75.416C411.863 75.416 411.365 75.5068 410.973 75.6885C410.58 75.8701 410.287 76.1162 410.094 76.4268C409.906 76.7373 409.812 77.0918 409.812 77.4902C409.812 77.7598 409.868 78.0059 409.979 78.2285C410.097 78.4453 410.275 78.6475 410.516 78.835C410.762 79.0225 411.072 79.1953 411.447 79.3535C411.828 79.5117 412.282 79.6641 412.81 79.8105C413.536 80.0156 414.163 80.2441 414.69 80.4961C415.218 80.748 415.651 81.0322 415.991 81.3486C416.337 81.6592 416.592 82.0137 416.756 82.4121C416.926 82.8047 417.011 83.25 417.011 83.748C417.011 84.2695 416.905 84.7412 416.694 85.1631C416.483 85.585 416.182 85.9453 415.789 86.2441C415.396 86.543 414.925 86.7744 414.374 86.9385C413.829 87.0967 413.22 87.1758 412.546 87.1758C411.954 87.1758 411.371 87.0938 410.797 86.9297C410.229 86.7656 409.71 86.5195 409.241 86.1914C408.778 85.8633 408.406 85.459 408.125 84.9785C407.85 84.4922 407.712 83.9297 407.712 83.291H409.399C409.399 83.7305 409.484 84.1084 409.654 84.4248C409.824 84.7354 410.056 84.9932 410.349 85.1982C410.647 85.4033 410.984 85.5557 411.359 85.6553C411.74 85.749 412.136 85.7959 412.546 85.7959C413.138 85.7959 413.639 85.7139 414.049 85.5498C414.459 85.3857 414.77 85.1514 414.98 84.8467C415.197 84.542 415.306 84.1816 415.306 83.7656ZM424.745 84.8027V77.4902H426.38V87H424.824L424.745 84.8027ZM425.053 82.7988L425.729 82.7812C425.729 83.4141 425.662 84 425.527 84.5391C425.398 85.0723 425.188 85.5352 424.895 85.9277C424.602 86.3203 424.218 86.6279 423.743 86.8506C423.269 87.0674 422.691 87.1758 422.012 87.1758C421.549 87.1758 421.124 87.1084 420.737 86.9736C420.356 86.8389 420.028 86.6309 419.753 86.3496C419.478 86.0684 419.264 85.7021 419.111 85.251C418.965 84.7998 418.892 84.2578 418.892 83.625V77.4902H420.518V83.6426C420.518 84.0703 420.564 84.4248 420.658 84.7061C420.758 84.9814 420.89 85.2012 421.054 85.3652C421.224 85.5234 421.411 85.6348 421.616 85.6992C421.827 85.7637 422.044 85.7959 422.267 85.7959C422.958 85.7959 423.506 85.6641 423.91 85.4004C424.314 85.1309 424.604 84.7705 424.78 84.3193C424.962 83.8623 425.053 83.3555 425.053 82.7988ZM432.664 85.8398C433.051 85.8398 433.408 85.7607 433.736 85.6025C434.064 85.4443 434.334 85.2275 434.545 84.9521C434.756 84.6709 434.876 84.3516 434.905 83.9941H436.452C436.423 84.5566 436.232 85.0811 435.881 85.5674C435.535 86.0479 435.081 86.4375 434.519 86.7363C433.956 87.0293 433.338 87.1758 432.664 87.1758C431.949 87.1758 431.325 87.0498 430.792 86.7979C430.265 86.5459 429.825 86.2002 429.474 85.7607C429.128 85.3213 428.867 84.8174 428.691 84.249C428.521 83.6748 428.437 83.0684 428.437 82.4297V82.0605C428.437 81.4219 428.521 80.8184 428.691 80.25C428.867 79.6758 429.128 79.1689 429.474 78.7295C429.825 78.29 430.265 77.9443 430.792 77.6924C431.325 77.4404 431.949 77.3145 432.664 77.3145C433.408 77.3145 434.059 77.4668 434.615 77.7715C435.172 78.0703 435.608 78.4805 435.925 79.002C436.247 79.5176 436.423 80.1035 436.452 80.7598H434.905C434.876 80.3672 434.765 80.0127 434.571 79.6963C434.384 79.3799 434.126 79.1279 433.798 78.9404C433.476 78.7471 433.098 78.6504 432.664 78.6504C432.166 78.6504 431.747 78.75 431.407 78.9492C431.073 79.1426 430.807 79.4062 430.607 79.7402C430.414 80.0684 430.273 80.4346 430.186 80.8389C430.104 81.2373 430.062 81.6445 430.062 82.0605V82.4297C430.062 82.8457 430.104 83.2559 430.186 83.6602C430.268 84.0645 430.405 84.4307 430.599 84.7588C430.798 85.0869 431.064 85.3506 431.398 85.5498C431.738 85.7432 432.16 85.8398 432.664 85.8398ZM442.086 85.8398C442.473 85.8398 442.83 85.7607 443.158 85.6025C443.486 85.4443 443.756 85.2275 443.967 84.9521C444.178 84.6709 444.298 84.3516 444.327 83.9941H445.874C445.845 84.5566 445.654 85.0811 445.303 85.5674C444.957 86.0479 444.503 86.4375 443.94 86.7363C443.378 87.0293 442.76 87.1758 442.086 87.1758C441.371 87.1758 440.747 87.0498 440.214 86.7979C439.687 86.5459 439.247 86.2002 438.896 85.7607C438.55 85.3213 438.289 84.8174 438.113 84.249C437.943 83.6748 437.858 83.0684 437.858 82.4297V82.0605C437.858 81.4219 437.943 80.8184 438.113 80.25C438.289 79.6758 438.55 79.1689 438.896 78.7295C439.247 78.29 439.687 77.9443 440.214 77.6924C440.747 77.4404 441.371 77.3145 442.086 77.3145C442.83 77.3145 443.48 77.4668 444.037 77.7715C444.594 78.0703 445.03 78.4805 445.347 79.002C445.669 79.5176 445.845 80.1035 445.874 80.7598H444.327C444.298 80.3672 444.187 80.0127 443.993 79.6963C443.806 79.3799 443.548 79.1279 443.22 78.9404C442.897 78.7471 442.52 78.6504 442.086 78.6504C441.588 78.6504 441.169 78.75 440.829 78.9492C440.495 79.1426 440.229 79.4062 440.029 79.7402C439.836 80.0684 439.695 80.4346 439.607 80.8389C439.525 81.2373 439.484 81.6445 439.484 82.0605V82.4297C439.484 82.8457 439.525 83.2559 439.607 83.6602C439.689 84.0645 439.827 84.4307 440.021 84.7588C440.22 85.0869 440.486 85.3506 440.82 85.5498C441.16 85.7432 441.582 85.8398 442.086 85.8398ZM451.648 87.1758C450.986 87.1758 450.386 87.0645 449.847 86.8418C449.313 86.6133 448.854 86.2939 448.467 85.8838C448.086 85.4736 447.793 84.9873 447.588 84.4248C447.383 83.8623 447.28 83.2471 447.28 82.5791V82.21C447.28 81.4365 447.395 80.748 447.623 80.1445C447.852 79.5352 448.162 79.0195 448.555 78.5977C448.947 78.1758 449.393 77.8564 449.891 77.6396C450.389 77.4229 450.904 77.3145 451.438 77.3145C452.117 77.3145 452.703 77.4316 453.195 77.666C453.693 77.9004 454.101 78.2285 454.417 78.6504C454.733 79.0664 454.968 79.5586 455.12 80.127C455.272 80.6895 455.349 81.3047 455.349 81.9727V82.7021H448.247V81.375H453.723V81.252C453.699 80.8301 453.611 80.4199 453.459 80.0215C453.312 79.623 453.078 79.2949 452.756 79.0371C452.434 78.7793 451.994 78.6504 451.438 78.6504C451.068 78.6504 450.729 78.7295 450.418 78.8877C450.107 79.04 449.841 79.2686 449.618 79.5732C449.396 79.8779 449.223 80.25 449.1 80.6895C448.977 81.1289 448.915 81.6357 448.915 82.21V82.5791C448.915 83.0303 448.977 83.4551 449.1 83.8535C449.229 84.2461 449.413 84.5918 449.653 84.8906C449.899 85.1895 450.195 85.4238 450.541 85.5938C450.893 85.7637 451.291 85.8486 451.736 85.8486C452.311 85.8486 452.797 85.7314 453.195 85.4971C453.594 85.2627 453.942 84.9492 454.241 84.5566L455.226 85.3389C455.021 85.6494 454.76 85.9453 454.443 86.2266C454.127 86.5078 453.737 86.7363 453.274 86.9121C452.817 87.0879 452.275 87.1758 451.648 87.1758ZM462.784 84.4775C462.784 84.2432 462.731 84.0264 462.626 83.8271C462.526 83.6221 462.318 83.4375 462.002 83.2734C461.691 83.1035 461.223 82.957 460.596 82.834C460.068 82.7227 459.591 82.5908 459.163 82.4385C458.741 82.2861 458.381 82.1016 458.082 81.8848C457.789 81.668 457.563 81.4131 457.405 81.1201C457.247 80.8271 457.168 80.4844 457.168 80.0918C457.168 79.7168 457.25 79.3623 457.414 79.0283C457.584 78.6943 457.821 78.3984 458.126 78.1406C458.437 77.8828 458.809 77.6807 459.242 77.5342C459.676 77.3877 460.159 77.3145 460.692 77.3145C461.454 77.3145 462.104 77.4492 462.644 77.7188C463.183 77.9883 463.596 78.3486 463.883 78.7998C464.17 79.2451 464.313 79.7402 464.313 80.2852H462.688C462.688 80.0215 462.608 79.7666 462.45 79.5205C462.298 79.2686 462.072 79.0605 461.773 78.8965C461.48 78.7324 461.12 78.6504 460.692 78.6504C460.241 78.6504 459.875 78.7207 459.594 78.8613C459.318 78.9961 459.116 79.1689 458.987 79.3799C458.864 79.5908 458.803 79.8135 458.803 80.0479C458.803 80.2236 458.832 80.3818 458.891 80.5225C458.955 80.6572 459.066 80.7832 459.225 80.9004C459.383 81.0117 459.605 81.1172 459.893 81.2168C460.18 81.3164 460.546 81.416 460.991 81.5156C461.771 81.6914 462.412 81.9023 462.916 82.1484C463.42 82.3945 463.795 82.6963 464.041 83.0537C464.287 83.4111 464.41 83.8447 464.41 84.3545C464.41 84.7705 464.322 85.1514 464.146 85.4971C463.977 85.8428 463.728 86.1416 463.399 86.3936C463.077 86.6396 462.69 86.833 462.239 86.9736C461.794 87.1084 461.293 87.1758 460.736 87.1758C459.898 87.1758 459.189 87.0264 458.609 86.7275C458.029 86.4287 457.59 86.042 457.291 85.5674C456.992 85.0928 456.843 84.5918 456.843 84.0645H458.478C458.501 84.5098 458.63 84.8643 458.864 85.1279C459.099 85.3857 459.386 85.5703 459.726 85.6816C460.065 85.7871 460.402 85.8398 460.736 85.8398C461.182 85.8398 461.554 85.7812 461.853 85.6641C462.157 85.5469 462.389 85.3857 462.547 85.1807C462.705 84.9756 462.784 84.7412 462.784 84.4775ZM472.083 84.4775C472.083 84.2432 472.03 84.0264 471.925 83.8271C471.825 83.6221 471.617 83.4375 471.301 83.2734C470.99 83.1035 470.521 82.957 469.895 82.834C469.367 82.7227 468.89 82.5908 468.462 82.4385C468.04 82.2861 467.68 82.1016 467.381 81.8848C467.088 81.668 466.862 81.4131 466.704 81.1201C466.546 80.8271 466.467 80.4844 466.467 80.0918C466.467 79.7168 466.549 79.3623 466.713 79.0283C466.883 78.6943 467.12 78.3984 467.425 78.1406C467.735 77.8828 468.107 77.6807 468.541 77.5342C468.975 77.3877 469.458 77.3145 469.991 77.3145C470.753 77.3145 471.403 77.4492 471.942 77.7188C472.481 77.9883 472.895 78.3486 473.182 78.7998C473.469 79.2451 473.612 79.7402 473.612 80.2852H471.986C471.986 80.0215 471.907 79.7666 471.749 79.5205C471.597 79.2686 471.371 79.0605 471.072 78.8965C470.779 78.7324 470.419 78.6504 469.991 78.6504C469.54 78.6504 469.174 78.7207 468.893 78.8613C468.617 78.9961 468.415 79.1689 468.286 79.3799C468.163 79.5908 468.102 79.8135 468.102 80.0479C468.102 80.2236 468.131 80.3818 468.189 80.5225C468.254 80.6572 468.365 80.7832 468.523 80.9004C468.682 81.0117 468.904 81.1172 469.191 81.2168C469.479 81.3164 469.845 81.416 470.29 81.5156C471.069 81.6914 471.711 81.9023 472.215 82.1484C472.719 82.3945 473.094 82.6963 473.34 83.0537C473.586 83.4111 473.709 83.8447 473.709 84.3545C473.709 84.7705 473.621 85.1514 473.445 85.4971C473.275 85.8428 473.026 86.1416 472.698 86.3936C472.376 86.6396 471.989 86.833 471.538 86.9736C471.093 87.1084 470.592 87.1758 470.035 87.1758C469.197 87.1758 468.488 87.0264 467.908 86.7275C467.328 86.4287 466.889 86.042 466.59 85.5674C466.291 85.0928 466.142 84.5918 466.142 84.0645H467.776C467.8 84.5098 467.929 84.8643 468.163 85.1279C468.397 85.3857 468.685 85.5703 469.024 85.6816C469.364 85.7871 469.701 85.8398 470.035 85.8398C470.48 85.8398 470.853 85.7812 471.151 85.6641C471.456 85.5469 471.688 85.3857 471.846 85.1807C472.004 84.9756 472.083 84.7412 472.083 84.4775ZM478.271 87H476.645V76.4883C476.645 75.8027 476.768 75.2256 477.014 74.7568C477.266 74.2822 477.626 73.9248 478.095 73.6846C478.563 73.4385 479.12 73.3154 479.765 73.3154C479.952 73.3154 480.14 73.3271 480.327 73.3506C480.521 73.374 480.708 73.4092 480.89 73.4561L480.802 74.7832C480.679 74.7539 480.538 74.7334 480.38 74.7217C480.228 74.71 480.075 74.7041 479.923 74.7041C479.577 74.7041 479.278 74.7744 479.026 74.915C478.78 75.0498 478.593 75.249 478.464 75.5127C478.335 75.7764 478.271 76.1016 478.271 76.4883V87ZM480.292 77.4902V78.7383H475.142V77.4902H480.292ZM487.921 84.8027V77.4902H489.556V87H488L487.921 84.8027ZM488.229 82.7988L488.905 82.7812C488.905 83.4141 488.838 84 488.703 84.5391C488.574 85.0723 488.363 85.5352 488.07 85.9277C487.777 86.3203 487.394 86.6279 486.919 86.8506C486.444 87.0674 485.867 87.1758 485.188 87.1758C484.725 87.1758 484.3 87.1084 483.913 86.9736C483.532 86.8389 483.204 86.6309 482.929 86.3496C482.653 86.0684 482.439 85.7021 482.287 85.251C482.141 84.7998 482.067 84.2578 482.067 83.625V77.4902H483.693V83.6426C483.693 84.0703 483.74 84.4248 483.834 84.7061C483.934 84.9814 484.065 85.2012 484.229 85.3652C484.399 85.5234 484.587 85.6348 484.792 85.6992C485.003 85.7637 485.22 85.7959 485.442 85.7959C486.134 85.7959 486.682 85.6641 487.086 85.4004C487.49 85.1309 487.78 84.7705 487.956 84.3193C488.138 83.8623 488.229 83.3555 488.229 82.7988ZM493.801 73.5V87H492.166V73.5H493.801ZM506.87 85.1543V73.5H508.505V87H507.011L506.87 85.1543ZM500.472 82.3506V82.166C500.472 81.4395 500.56 80.7803 500.735 80.1885C500.917 79.5908 501.172 79.0781 501.5 78.6504C501.834 78.2227 502.229 77.8945 502.687 77.666C503.149 77.4316 503.665 77.3145 504.233 77.3145C504.831 77.3145 505.353 77.4199 505.798 77.6309C506.249 77.8359 506.63 78.1377 506.94 78.5361C507.257 78.9287 507.506 79.4033 507.688 79.96C507.869 80.5166 507.995 81.1465 508.065 81.8496V82.6582C508.001 83.3555 507.875 83.9824 507.688 84.5391C507.506 85.0957 507.257 85.5703 506.94 85.9629C506.63 86.3555 506.249 86.6572 505.798 86.8682C505.347 87.0732 504.819 87.1758 504.216 87.1758C503.659 87.1758 503.149 87.0557 502.687 86.8154C502.229 86.5752 501.834 86.2383 501.5 85.8047C501.172 85.3711 500.917 84.8613 500.735 84.2754C500.56 83.6836 500.472 83.042 500.472 82.3506ZM502.106 82.166V82.3506C502.106 82.8252 502.153 83.2705 502.247 83.6865C502.347 84.1025 502.499 84.4688 502.704 84.7852C502.909 85.1016 503.17 85.3506 503.486 85.5322C503.803 85.708 504.181 85.7959 504.62 85.7959C505.159 85.7959 505.602 85.6816 505.947 85.4531C506.299 85.2246 506.58 84.9229 506.791 84.5479C507.002 84.1729 507.166 83.7656 507.283 83.3262V81.208C507.213 80.8857 507.11 80.5752 506.976 80.2764C506.847 79.9717 506.677 79.7021 506.466 79.4678C506.261 79.2275 506.006 79.0371 505.701 78.8965C505.402 78.7559 505.048 78.6855 504.638 78.6855C504.192 78.6855 503.809 78.7793 503.486 78.9668C503.17 79.1484 502.909 79.4004 502.704 79.7227C502.499 80.0391 502.347 80.4082 502.247 80.8301C502.153 81.2461 502.106 81.6914 502.106 82.166ZM514.982 87.1758C514.32 87.1758 513.72 87.0645 513.181 86.8418C512.647 86.6133 512.188 86.2939 511.801 85.8838C511.42 85.4736 511.127 84.9873 510.922 84.4248C510.717 83.8623 510.614 83.2471 510.614 82.5791V82.21C510.614 81.4365 510.729 80.748 510.957 80.1445C511.186 79.5352 511.496 79.0195 511.889 78.5977C512.281 78.1758 512.727 77.8564 513.225 77.6396C513.723 77.4229 514.238 77.3145 514.771 77.3145C515.451 77.3145 516.037 77.4316 516.529 77.666C517.027 77.9004 517.435 78.2285 517.751 78.6504C518.067 79.0664 518.302 79.5586 518.454 80.127C518.606 80.6895 518.683 81.3047 518.683 81.9727V82.7021H511.581V81.375H517.057V81.252C517.033 80.8301 516.945 80.4199 516.793 80.0215C516.646 79.623 516.412 79.2949 516.09 79.0371C515.768 78.7793 515.328 78.6504 514.771 78.6504C514.402 78.6504 514.062 78.7295 513.752 78.8877C513.441 79.04 513.175 79.2686 512.952 79.5732C512.729 79.8779 512.557 80.25 512.434 80.6895C512.311 81.1289 512.249 81.6357 512.249 82.21V82.5791C512.249 83.0303 512.311 83.4551 512.434 83.8535C512.562 84.2461 512.747 84.5918 512.987 84.8906C513.233 85.1895 513.529 85.4238 513.875 85.5938C514.227 85.7637 514.625 85.8486 515.07 85.8486C515.645 85.8486 516.131 85.7314 516.529 85.4971C516.928 85.2627 517.276 84.9492 517.575 84.5566L518.56 85.3389C518.354 85.6494 518.094 85.9453 517.777 86.2266C517.461 86.5078 517.071 86.7363 516.608 86.9121C516.151 87.0879 515.609 87.1758 514.982 87.1758ZM522.348 73.5V87H520.713V73.5H522.348ZM526.725 77.4902V87H525.09V77.4902H526.725ZM524.967 74.9678C524.967 74.7041 525.046 74.4814 525.204 74.2998C525.368 74.1182 525.608 74.0273 525.925 74.0273C526.235 74.0273 526.473 74.1182 526.637 74.2998C526.807 74.4814 526.892 74.7041 526.892 74.9678C526.892 75.2197 526.807 75.4365 526.637 75.6182C526.473 75.7939 526.235 75.8818 525.925 75.8818C525.608 75.8818 525.368 75.7939 525.204 75.6182C525.046 75.4365 524.967 75.2197 524.967 74.9678ZM532.227 85.5322L534.828 77.4902H536.489L533.07 87H531.98L532.227 85.5322ZM530.056 77.4902L532.736 85.5762L532.921 87H531.831L528.386 77.4902H530.056ZM541.877 87.1758C541.215 87.1758 540.614 87.0645 540.075 86.8418C539.542 86.6133 539.082 86.2939 538.695 85.8838C538.314 85.4736 538.021 84.9873 537.816 84.4248C537.611 83.8623 537.509 83.2471 537.509 82.5791V82.21C537.509 81.4365 537.623 80.748 537.852 80.1445C538.08 79.5352 538.391 79.0195 538.783 78.5977C539.176 78.1758 539.621 77.8564 540.119 77.6396C540.617 77.4229 541.133 77.3145 541.666 77.3145C542.346 77.3145 542.932 77.4316 543.424 77.666C543.922 77.9004 544.329 78.2285 544.646 78.6504C544.962 79.0664 545.196 79.5586 545.349 80.127C545.501 80.6895 545.577 81.3047 545.577 81.9727V82.7021H538.476V81.375H543.951V81.252C543.928 80.8301 543.84 80.4199 543.688 80.0215C543.541 79.623 543.307 79.2949 542.984 79.0371C542.662 78.7793 542.223 78.6504 541.666 78.6504C541.297 78.6504 540.957 78.7295 540.646 78.8877C540.336 79.04 540.069 79.2686 539.847 79.5732C539.624 79.8779 539.451 80.25 539.328 80.6895C539.205 81.1289 539.144 81.6357 539.144 82.21V82.5791C539.144 83.0303 539.205 83.4551 539.328 83.8535C539.457 84.2461 539.642 84.5918 539.882 84.8906C540.128 85.1895 540.424 85.4238 540.77 85.5938C541.121 85.7637 541.52 85.8486 541.965 85.8486C542.539 85.8486 543.025 85.7314 543.424 85.4971C543.822 85.2627 544.171 84.9492 544.47 84.5566L545.454 85.3389C545.249 85.6494 544.988 85.9453 544.672 86.2266C544.355 86.5078 543.966 86.7363 543.503 86.9121C543.046 87.0879 542.504 87.1758 541.877 87.1758ZM549.102 78.9844V87H547.476V77.4902H549.058L549.102 78.9844ZM552.072 77.4375L552.063 78.9492C551.929 78.9199 551.8 78.9023 551.677 78.8965C551.56 78.8848 551.425 78.8789 551.272 78.8789C550.897 78.8789 550.566 78.9375 550.279 79.0547C549.992 79.1719 549.749 79.3359 549.55 79.5469C549.351 79.7578 549.192 80.0098 549.075 80.3027C548.964 80.5898 548.891 80.9062 548.855 81.252L548.398 81.5156C548.398 80.9414 548.454 80.4023 548.565 79.8984C548.683 79.3945 548.861 78.9492 549.102 78.5625C549.342 78.1699 549.646 77.8652 550.016 77.6484C550.391 77.4258 550.836 77.3145 551.352 77.3145C551.469 77.3145 551.604 77.3291 551.756 77.3584C551.908 77.3818 552.014 77.4082 552.072 77.4375ZM555.342 77.4902V87H553.707V77.4902H555.342ZM553.584 74.9678C553.584 74.7041 553.663 74.4814 553.821 74.2998C553.985 74.1182 554.226 74.0273 554.542 74.0273C554.853 74.0273 555.09 74.1182 555.254 74.2998C555.424 74.4814 555.509 74.7041 555.509 74.9678C555.509 75.2197 555.424 75.4365 555.254 75.6182C555.09 75.7939 554.853 75.8818 554.542 75.8818C554.226 75.8818 553.985 75.7939 553.821 75.6182C553.663 75.4365 553.584 75.2197 553.584 74.9678ZM561.898 87.1758C561.236 87.1758 560.636 87.0645 560.097 86.8418C559.563 86.6133 559.104 86.2939 558.717 85.8838C558.336 85.4736 558.043 84.9873 557.838 84.4248C557.633 83.8623 557.53 83.2471 557.53 82.5791V82.21C557.53 81.4365 557.645 80.748 557.873 80.1445C558.102 79.5352 558.412 79.0195 558.805 78.5977C559.197 78.1758 559.643 77.8564 560.141 77.6396C560.639 77.4229 561.154 77.3145 561.688 77.3145C562.367 77.3145 562.953 77.4316 563.445 77.666C563.943 77.9004 564.351 78.2285 564.667 78.6504C564.983 79.0664 565.218 79.5586 565.37 80.127C565.522 80.6895 565.599 81.3047 565.599 81.9727V82.7021H558.497V81.375H563.973V81.252C563.949 80.8301 563.861 80.4199 563.709 80.0215C563.562 79.623 563.328 79.2949 563.006 79.0371C562.684 78.7793 562.244 78.6504 561.688 78.6504C561.318 78.6504 560.979 78.7295 560.668 78.8877C560.357 79.04 560.091 79.2686 559.868 79.5732C559.646 79.8779 559.473 80.25 559.35 80.6895C559.227 81.1289 559.165 81.6357 559.165 82.21V82.5791C559.165 83.0303 559.227 83.4551 559.35 83.8535C559.479 84.2461 559.663 84.5918 559.903 84.8906C560.149 85.1895 560.445 85.4238 560.791 85.5938C561.143 85.7637 561.541 85.8486 561.986 85.8486C562.561 85.8486 563.047 85.7314 563.445 85.4971C563.844 85.2627 564.192 84.9492 564.491 84.5566L565.476 85.3389C565.271 85.6494 565.01 85.9453 564.693 86.2266C564.377 86.5078 563.987 86.7363 563.524 86.9121C563.067 87.0879 562.525 87.1758 561.898 87.1758ZM573.034 84.4775C573.034 84.2432 572.981 84.0264 572.876 83.8271C572.776 83.6221 572.568 83.4375 572.252 83.2734C571.941 83.1035 571.473 82.957 570.846 82.834C570.318 82.7227 569.841 82.5908 569.413 82.4385C568.991 82.2861 568.631 82.1016 568.332 81.8848C568.039 81.668 567.813 81.4131 567.655 81.1201C567.497 80.8271 567.418 80.4844 567.418 80.0918C567.418 79.7168 567.5 79.3623 567.664 79.0283C567.834 78.6943 568.071 78.3984 568.376 78.1406C568.687 77.8828 569.059 77.6807 569.492 77.5342C569.926 77.3877 570.409 77.3145 570.942 77.3145C571.704 77.3145 572.354 77.4492 572.894 77.7188C573.433 77.9883 573.846 78.3486 574.133 78.7998C574.42 79.2451 574.563 79.7402 574.563 80.2852H572.938C572.938 80.0215 572.858 79.7666 572.7 79.5205C572.548 79.2686 572.322 79.0605 572.023 78.8965C571.73 78.7324 571.37 78.6504 570.942 78.6504C570.491 78.6504 570.125 78.7207 569.844 78.8613C569.568 78.9961 569.366 79.1689 569.237 79.3799C569.114 79.5908 569.053 79.8135 569.053 80.0479C569.053 80.2236 569.082 80.3818 569.141 80.5225C569.205 80.6572 569.316 80.7832 569.475 80.9004C569.633 81.0117 569.855 81.1172 570.143 81.2168C570.43 81.3164 570.796 81.416 571.241 81.5156C572.021 81.6914 572.662 81.9023 573.166 82.1484C573.67 82.3945 574.045 82.6963 574.291 83.0537C574.537 83.4111 574.66 83.8447 574.66 84.3545C574.66 84.7705 574.572 85.1514 574.396 85.4971C574.227 85.8428 573.978 86.1416 573.649 86.3936C573.327 86.6396 572.94 86.833 572.489 86.9736C572.044 87.1084 571.543 87.1758 570.986 87.1758C570.148 87.1758 569.439 87.0264 568.859 86.7275C568.279 86.4287 567.84 86.042 567.541 85.5674C567.242 85.0928 567.093 84.5918 567.093 84.0645H568.728C568.751 84.5098 568.88 84.8643 569.114 85.1279C569.349 85.3857 569.636 85.5703 569.976 85.6816C570.315 85.7871 570.652 85.8398 570.986 85.8398C571.432 85.8398 571.804 85.7812 572.103 85.6641C572.407 85.5469 572.639 85.3857 572.797 85.1807C572.955 84.9756 573.034 84.7412 573.034 84.4775Z" fill="#656565"/>
</svg>
